<svg width="60" height="88" viewBox="0 0 60 88" fill="none" xmlns="http://www.w3.org/2000/svg">
<path d="M22.5414 26.8486L13.7577 34.638L6.2998 56.5144L8.78576 73.2531L30.6622 87.8374L51.5442 75.4076L59.0021 37.4554L58.8363 33.8093L31.3251 28.8374L22.5414 26.8486Z" fill="#1341C2"/>
<path d="M6.2998 56.5144L15.9122 36.7925L36.297 45.4104L25.5245 62.3149L30.6622 87.8374L51.5442 75.4076L58.8363 33.8093L22.5414 26.8486L13.7577 34.638L6.2998 56.5144Z" fill="#072B86"/>
<path d="M58.8343 33.8093L36.295 45.4104L15.9102 36.7925L22.5394 26.8486L58.8343 33.8093Z" fill="#001863"/>
<path fill-rule="evenodd" clip-rule="evenodd" d="M47.5642 0C47.3984 0 47.3984 0.16573 47.3984 0.331461C47.5642 0.331461 47.5642 0.331461 47.8956 0.331461V0.16573C47.5642 0.16573 47.5642 0.16573 47.5642 0Z" fill="#5787D9"/>
<path fill-rule="evenodd" clip-rule="evenodd" d="M49.0558 7.95459C48.7243 7.95459 48.8901 8.28605 48.8901 8.45178C49.2215 8.28605 49.0558 8.12032 49.0558 7.95459Z" fill="#5787D9"/>
<path fill-rule="evenodd" clip-rule="evenodd" d="M27.8447 48.2271C27.679 48.2271 27.5132 48.7242 27.8447 48.7242C27.8447 48.5585 27.8447 48.5585 27.8447 48.2271Z" fill="#5787D9"/>
<path fill-rule="evenodd" clip-rule="evenodd" d="M27.8439 48.8906C27.5124 49.3878 27.6782 49.3878 27.6782 50.0507C28.1753 49.885 28.0096 49.3878 27.8439 48.8906Z" fill="#5787D9"/>
<path fill-rule="evenodd" clip-rule="evenodd" d="M27.6758 50.8794C28.173 51.0451 28.0072 51.3766 28.0072 51.8738C28.3387 51.5423 28.5044 50.8794 27.6758 50.8794Z" fill="#5787D9"/>
<path fill-rule="evenodd" clip-rule="evenodd" d="M27.0145 53.0337C26.8488 53.0337 26.8488 53.1994 26.8488 53.1994C26.5173 53.3651 27.0145 53.5309 27.1803 53.3652C27.1803 53.3652 27.346 53.1994 27.1803 53.0337C27.0145 53.0337 27.0145 53.0337 27.0145 53.0337Z" fill="#5787D9"/>
<path fill-rule="evenodd" clip-rule="evenodd" d="M28.0076 50.2158C28.0076 50.3816 27.6762 50.8787 28.1734 50.713C28.0076 50.5473 28.0076 50.3816 28.0076 50.2158Z" fill="#5787D9"/>
<path fill-rule="evenodd" clip-rule="evenodd" d="M39.2773 56.0175C39.2773 56.1832 39.4431 56.1832 39.4431 56.1832C39.6088 55.8518 39.4431 56.0175 39.2773 56.0175Z" fill="#5787D9"/>
<path fill-rule="evenodd" clip-rule="evenodd" d="M43.4209 55.5195C43.4209 55.5195 43.4209 55.6853 43.4209 55.5195C43.5866 55.6853 43.7524 55.6853 43.9181 55.5195C43.7524 55.5195 43.5866 55.5195 43.4209 55.5195Z" fill="#5787D9"/>
<path fill-rule="evenodd" clip-rule="evenodd" d="M43.4209 55.0229C43.4209 55.1887 43.5866 55.1887 43.5866 55.3544C43.5866 55.023 43.4209 55.0229 43.4209 55.0229Z" fill="#5787D9"/>
<path fill-rule="evenodd" clip-rule="evenodd" d="M43.7546 55.1887C43.7546 55.3544 43.7546 55.3544 43.7546 55.1887C43.7546 55.3544 43.9203 55.3544 43.9203 55.5201V55.3544C43.9203 55.1887 43.9203 55.3544 43.7546 55.1887C43.7546 55.0229 43.7546 55.0229 43.5889 55.0229V55.1887C43.7546 55.3544 43.7546 55.1887 43.7546 55.1887Z" fill="#5787D9"/>
<path fill-rule="evenodd" clip-rule="evenodd" d="M43.9189 55.6855C43.9189 55.8512 44.0847 55.6855 44.0847 55.6855C44.2504 55.6855 44.0847 56.0169 44.2504 55.6855C44.2504 55.5197 44.0847 55.6855 43.9189 55.6855Z" fill="#5787D9"/>
<path fill-rule="evenodd" clip-rule="evenodd" d="M45.2461 55.1878C45.2461 55.022 45.4118 55.1878 45.2461 55.1878C45.4118 55.022 45.2461 55.022 45.2461 55.1878Z" fill="#5787D9"/>
<path fill-rule="evenodd" clip-rule="evenodd" d="M45.4111 54.3603C45.5769 54.1945 45.4111 54.3603 45.4111 54.3603V54.3603Z" fill="#5787D9"/>
<path fill-rule="evenodd" clip-rule="evenodd" d="M41.2676 54.6917C41.2676 54.8574 41.4333 54.8574 41.4333 54.8574C41.4333 54.6917 41.4333 54.526 41.2676 54.6917Z" fill="#5787D9"/>
<path fill-rule="evenodd" clip-rule="evenodd" d="M42.2617 55.8505C42.4274 55.8505 42.4274 55.8505 42.2617 55.8505C42.4274 55.6848 42.2617 55.8505 42.2617 55.8505Z" fill="#5787D9"/>
<path fill-rule="evenodd" clip-rule="evenodd" d="M49.7197 51.0444C49.8855 51.2102 49.8855 51.2102 50.2169 51.3759V51.2102C50.2169 51.0444 50.0512 51.2102 50.0512 51.0444C50.0512 51.0444 49.8855 51.0444 49.7197 51.0444Z" fill="#5787D9"/>
<path fill-rule="evenodd" clip-rule="evenodd" d="M42.9248 53.0337C42.9248 53.1994 43.0905 53.0337 43.0905 53.1994C43.0905 53.3651 43.0905 53.3652 42.9248 53.3652C42.9248 53.6966 43.0905 53.1994 43.0905 53.5309H43.2563C43.2563 53.3652 43.0905 53.5309 43.0905 53.5309C43.0905 53.3652 43.0905 53.3651 43.0905 53.1994C43.0905 53.0337 43.0905 53.0337 42.9248 53.0337Z" fill="#5787D9"/>
<path fill-rule="evenodd" clip-rule="evenodd" d="M44.9131 54.5259C44.9131 54.6916 44.9131 54.6916 44.9131 54.6916C44.9131 54.6916 44.9131 54.6916 45.0788 54.6916C45.0788 54.6916 45.0788 54.5259 44.9131 54.5259Z" fill="#5787D9"/>
<path fill-rule="evenodd" clip-rule="evenodd" d="M38.1182 56.8459C38.2839 57.0116 38.4496 57.0116 38.2839 56.6802C38.2839 56.6802 38.2839 56.8459 38.1182 56.8459Z" fill="#5787D9"/>
<path fill-rule="evenodd" clip-rule="evenodd" d="M39.6104 58.3369C39.6104 58.6684 39.9418 58.5027 40.1075 58.3369C40.2733 58.3369 40.2733 58.6684 40.2733 58.8341C40.439 58.6684 40.439 58.3369 40.439 58.1712C40.2733 58.0055 39.9418 58.1712 40.1075 58.3369C39.9418 58.3369 39.7761 58.1712 39.6104 58.3369Z" fill="#5787D9"/>
<path fill-rule="evenodd" clip-rule="evenodd" d="M45.9062 53.3647C45.9062 53.3647 46.072 53.3647 45.9062 53.3647C46.072 53.1989 45.9062 53.3647 45.9062 53.3647Z" fill="#5787D9"/>
<path fill-rule="evenodd" clip-rule="evenodd" d="M46.4053 52.3701L46.571 52.5358C46.571 52.3701 46.4053 52.3701 46.4053 52.3701Z" fill="#5787D9"/>
<path fill-rule="evenodd" clip-rule="evenodd" d="M49.3896 54.6909C49.3896 54.8566 49.5554 55.1881 49.7211 55.1881C49.7211 55.0224 49.7211 54.6909 49.3896 54.6909C49.5554 54.6909 49.5554 54.6909 49.3896 54.6909Z" fill="#5787D9"/>
<path fill-rule="evenodd" clip-rule="evenodd" d="M34.6387 50.05C34.8044 50.5472 34.8044 49.7185 34.9701 50.2157C34.9701 50.2157 34.9701 50.05 34.9701 49.8843C34.8044 49.8843 34.6387 50.05 34.6387 50.05Z" fill="#5787D9"/>
<path fill-rule="evenodd" clip-rule="evenodd" d="M41.7627 47.2329C41.7627 47.3986 41.9284 47.5644 42.0942 47.3986C42.0942 47.2329 41.9284 47.2329 41.7627 47.2329Z" fill="#5787D9"/>
<path fill-rule="evenodd" clip-rule="evenodd" d="M44.417 47.2336C44.5827 47.5651 44.7485 47.2336 44.9142 47.2336C44.9142 47.0679 44.7485 47.3993 44.7485 47.0679C44.7485 47.2336 44.5827 47.0679 44.417 47.2336Z" fill="#5787D9"/>
<path fill-rule="evenodd" clip-rule="evenodd" d="M34.9688 50.05C34.9688 50.2157 34.9688 50.2157 35.1345 50.3815C35.3002 50.3815 35.1345 49.8843 35.3002 50.05C35.4659 49.8843 35.1345 49.8843 35.1345 49.8843C35.1345 49.8843 35.1345 50.05 34.9688 50.05Z" fill="#5787D9"/>
<path fill-rule="evenodd" clip-rule="evenodd" d="M35.3018 50.2157C35.4675 50.05 35.4675 50.05 35.4675 50.05C35.4675 49.8843 35.4675 49.8843 35.4675 49.8843C35.6332 49.8843 35.3018 50.05 35.3018 50.2157Z" fill="#5787D9"/>
<path fill-rule="evenodd" clip-rule="evenodd" d="M40.6045 51.2102C40.6045 51.3759 40.7702 51.3759 40.7702 51.3759C40.7702 51.2102 40.7702 51.2102 40.7702 51.0444C40.7702 51.0444 40.7702 51.0444 40.6045 51.2102C40.7702 51.2102 40.7702 51.2102 40.6045 51.2102Z" fill="#5787D9"/>
<path fill-rule="evenodd" clip-rule="evenodd" d="M46.2402 50.5473C46.2402 50.8788 46.406 50.5473 46.5717 50.713C46.5717 50.3816 46.406 50.5473 46.2402 50.5473Z" fill="#5787D9"/>
<path fill-rule="evenodd" clip-rule="evenodd" d="M51.0464 46.5697V46.404C50.715 46.404 50.715 46.9012 50.3835 46.7354C50.3835 46.5697 50.5492 46.7354 50.5492 46.5697C50.3835 46.404 50.3835 46.7354 50.2178 46.5697C50.2178 46.9012 50.2178 46.7354 50.2178 47.0669C50.5492 47.0669 50.5492 46.9012 51.0464 46.9012C50.715 46.5697 51.2122 46.5697 51.0464 46.5697C51.2122 46.9012 51.3779 46.7354 51.3779 46.5697C51.5436 46.5697 51.3779 46.7354 51.3779 46.9012C51.5436 46.7354 51.8751 46.9012 51.7093 46.5697C51.7093 46.5697 51.7093 46.5697 51.7093 46.404C51.8751 46.404 51.7093 46.7354 51.8751 46.7354C51.7093 46.5697 51.8751 46.5697 52.0408 46.404C51.7093 45.9068 51.2122 46.404 50.8807 46.2382C51.0464 46.2382 51.0464 46.404 51.0464 46.5697Z" fill="#5787D9"/>
<path fill-rule="evenodd" clip-rule="evenodd" d="M42.4268 56.845C42.7582 57.0107 42.9239 56.5135 43.0897 56.3478C42.9239 56.1821 42.7582 56.6793 42.4268 56.845Z" fill="#5787D9"/>
<path fill-rule="evenodd" clip-rule="evenodd" d="M42.9248 60.4924C43.0905 60.9896 43.0905 60.1609 43.2563 60.6581C43.2563 60.6581 43.2563 60.4924 43.2563 60.3267C43.0905 60.4924 43.0905 60.4924 42.9248 60.4924Z" fill="#5787D9"/>
<path fill-rule="evenodd" clip-rule="evenodd" d="M42.7598 57.6737C42.7598 57.8395 42.9255 57.6737 42.9255 57.6737C42.9255 57.508 42.9255 57.508 42.9255 57.3423C42.7598 57.508 42.7598 57.6737 42.7598 57.6737Z" fill="#5787D9"/>
<path fill-rule="evenodd" clip-rule="evenodd" d="M43.0898 58.1709C43.0898 58.3366 43.2556 58.5024 43.2556 58.3366C43.2556 58.1709 43.2556 58.1709 43.0898 58.1709Z" fill="#5787D9"/>
<path fill-rule="evenodd" clip-rule="evenodd" d="M43.4209 57.6745C43.5866 57.8402 43.9181 58.006 43.9181 57.8403C43.7524 57.6745 43.7524 57.8402 43.7524 57.5088C43.7524 57.6745 43.5866 57.6745 43.4209 57.6745Z" fill="#5787D9"/>
<path fill-rule="evenodd" clip-rule="evenodd" d="M44.582 57.3425C44.582 57.8397 45.4107 57.6739 45.245 57.1768V57.3425C45.0792 57.1768 44.7478 57.5082 44.582 57.3425Z" fill="#5787D9"/>
<path fill-rule="evenodd" clip-rule="evenodd" d="M47.0684 57.6747C47.0684 57.8405 47.2341 57.6747 47.3998 57.6747C47.2341 57.509 47.0684 57.6747 47.0684 57.6747Z" fill="#5787D9"/>
<path fill-rule="evenodd" clip-rule="evenodd" d="M50.0498 57.6738C50.0498 57.8396 50.2155 58.0053 50.3813 57.8396C50.3813 57.6738 50.2155 57.6738 50.0498 57.6738Z" fill="#5787D9"/>
<path fill-rule="evenodd" clip-rule="evenodd" d="M52.7041 57.6745C52.8698 58.006 53.0356 57.6745 53.2013 57.6745C53.2013 57.5088 53.0356 57.8402 53.0356 57.5088C53.0356 57.6745 53.0356 57.5088 52.7041 57.6745Z" fill="#5787D9"/>
<path fill-rule="evenodd" clip-rule="evenodd" d="M43.2549 60.4924C43.2549 60.6581 43.2549 60.6581 43.4206 60.8238C43.5863 60.8238 43.4206 60.3267 43.5863 60.4924C43.7521 60.3267 43.4206 60.3267 43.4206 60.3267C43.4206 60.3267 43.4206 60.4924 43.2549 60.4924Z" fill="#5787D9"/>
<path fill-rule="evenodd" clip-rule="evenodd" d="M43.0898 57.5076C43.2556 57.839 43.4213 57.5076 43.4213 57.3418V57.1761C43.587 57.3418 43.587 57.0104 43.587 56.8446C43.587 56.8446 43.587 57.0104 43.7528 57.0104C43.9185 57.0104 43.9185 56.8446 43.9185 56.6789C43.7528 56.8446 43.7528 56.8446 43.4213 56.6789V56.8446C43.2556 56.8446 43.2556 56.8446 43.2556 57.0104C43.2556 56.8446 43.2556 56.6789 43.0898 56.6789C43.0898 56.5132 43.2556 56.6789 43.2556 56.5132C43.2556 56.6789 43.0898 56.6789 43.0898 56.8446C43.2556 56.8446 43.2556 57.0104 43.2556 57.3418C43.2556 57.1761 43.4213 57.3418 43.4213 57.3418C43.4213 57.5076 43.0898 57.5076 43.0898 57.5076Z" fill="#5787D9"/>
<path fill-rule="evenodd" clip-rule="evenodd" d="M43.5889 60.6581C43.7546 60.4924 43.7546 60.4924 43.7546 60.4924C43.7546 60.3267 43.7546 60.3267 43.7546 60.3267C43.9203 60.3267 43.5889 60.4924 43.5889 60.6581Z" fill="#5787D9"/>
<path fill-rule="evenodd" clip-rule="evenodd" d="M43.7539 57.1767C43.9196 57.5082 43.9196 57.011 43.9196 56.8453C43.9196 56.8453 43.9196 57.011 44.0854 57.011C43.9196 56.3481 43.9196 57.011 43.7539 57.1767Z" fill="#5787D9"/>
<path fill-rule="evenodd" clip-rule="evenodd" d="M40.7695 49.5536C40.9353 49.5536 41.101 49.3879 41.101 49.2222C40.9353 49.2222 40.9353 49.5536 40.7695 49.5536Z" fill="#5787D9"/>
<path fill-rule="evenodd" clip-rule="evenodd" d="M40.9346 51.5425C41.1003 51.7082 41.1003 51.3767 40.9346 51.5425C41.1003 51.5425 41.1003 51.5425 40.9346 51.5425C41.1003 51.5425 41.1003 51.5425 40.9346 51.5425Z" fill="#5787D9"/>
<path fill-rule="evenodd" clip-rule="evenodd" d="M40.9346 50.05C40.9346 50.2157 40.9346 50.05 40.9346 50.05C41.1003 49.8843 41.1003 50.05 41.1003 49.8843C40.9346 49.8843 40.9346 50.05 40.9346 50.05Z" fill="#5787D9"/>
<path fill-rule="evenodd" clip-rule="evenodd" d="M41.1025 50.3828C41.1025 50.3828 41.2683 50.5485 41.1025 50.3828V50.3828Z" fill="#5787D9"/>
<path fill-rule="evenodd" clip-rule="evenodd" d="M41.2676 50.05C41.2676 50.05 41.4333 50.2157 41.599 50.05C41.599 50.05 41.4333 50.05 41.599 49.8843C41.4333 50.05 41.4333 50.05 41.2676 50.05Z" fill="#5787D9"/>
<path fill-rule="evenodd" clip-rule="evenodd" d="M41.9316 49.885C41.9316 50.0507 42.4288 50.0507 42.2631 49.7192C42.2631 49.7192 42.2631 49.7192 42.2631 49.885C42.0974 49.885 41.9316 50.0507 41.9316 49.885Z" fill="#5787D9"/>
<path fill-rule="evenodd" clip-rule="evenodd" d="M41.2676 51.5428C41.2676 51.5428 41.2676 51.377 41.2676 51.5428C41.4333 51.377 41.2676 51.377 41.2676 51.5428C41.2676 51.377 41.2676 51.5428 41.2676 51.5428Z" fill="#5787D9"/>
<path fill-rule="evenodd" clip-rule="evenodd" d="M41.1003 50.0501C41.1003 50.2159 41.266 50.0501 41.266 50.0501C41.266 50.0501 41.266 50.0501 41.266 49.8844C41.4318 50.0501 41.266 49.7187 41.4318 49.7187C41.4318 49.7187 41.5975 49.7187 41.4318 49.5529C41.266 49.5529 41.266 49.5529 41.266 49.5529C41.266 49.5529 41.266 49.5529 41.266 49.7187H41.1003C41.1003 49.5529 41.1003 49.5529 41.1003 49.5529C41.1003 49.3872 41.266 49.5529 41.1003 49.3872C41.1003 49.3872 41.1003 49.5529 40.9346 49.5529C41.1003 49.5529 41.1003 49.7187 41.1003 50.0501C41.1003 49.7187 41.1003 49.8844 41.1003 50.0501C41.266 50.0501 41.1003 49.8844 41.1003 50.0501Z" fill="#5787D9"/>
<path fill-rule="evenodd" clip-rule="evenodd" d="M41.4321 51.7079C41.4321 51.5422 41.4321 51.5422 41.4321 51.7079C41.4321 51.5422 41.4321 51.5422 41.4321 51.3765C41.4321 51.3765 41.2663 51.5422 41.4321 51.7079Z" fill="#5787D9"/>
<path fill-rule="evenodd" clip-rule="evenodd" d="M41.4326 49.7195C41.5983 49.8852 41.5983 49.5537 41.5983 49.5537C41.5983 49.5537 41.5983 49.7195 41.5983 49.5537C41.5983 49.388 41.5983 49.7195 41.4326 49.7195Z" fill="#5787D9"/>
<path fill-rule="evenodd" clip-rule="evenodd" d="M36.4609 48.7249C36.4609 48.8906 36.6267 48.7249 36.7924 48.7249C36.6267 48.5592 36.6267 48.5592 36.4609 48.7249Z" fill="#5787D9"/>
<path fill-rule="evenodd" clip-rule="evenodd" d="M39.6104 48.7256C39.6104 48.8913 39.7761 49.057 39.9418 48.8913C39.7761 48.7256 39.6104 48.7256 39.6104 48.7256Z" fill="#5787D9"/>
<path fill-rule="evenodd" clip-rule="evenodd" d="M42.2617 48.5593C42.4274 48.8907 42.5932 48.5593 42.7589 48.5593C42.7589 48.3936 42.5932 48.725 42.5932 48.3936C42.4275 48.5593 42.4274 48.5593 42.2617 48.5593Z" fill="#5787D9"/>
<path fill-rule="evenodd" clip-rule="evenodd" d="M52.04 52.2045C52.04 52.3702 52.2058 52.3702 52.2058 52.3702C52.2058 52.2045 52.2058 52.0388 52.2058 51.873C52.04 51.873 52.2058 52.0388 52.04 52.2045Z" fill="#5787D9"/>
<path fill-rule="evenodd" clip-rule="evenodd" d="M54.8564 51.7075C54.8564 51.8732 55.0222 51.7075 55.1879 51.7075C55.0222 51.5418 55.0222 51.8732 54.8564 51.7075Z" fill="#5787D9"/>
<path fill-rule="evenodd" clip-rule="evenodd" d="M55.5205 55.6853C55.5205 56.0167 55.852 55.6853 55.852 55.5195C55.6862 55.5195 55.6862 55.6853 55.5205 55.6853Z" fill="#5787D9"/>
<path fill-rule="evenodd" clip-rule="evenodd" d="M51.875 62.1489C52.0407 62.3147 52.2065 62.3147 52.2065 62.3147C52.2065 62.1489 51.875 62.1489 51.875 62.1489Z" fill="#5787D9"/>
<path fill-rule="evenodd" clip-rule="evenodd" d="M52.5352 61.9839C52.5352 62.3153 52.8666 61.9839 53.0323 62.1496C52.8666 61.9839 52.5352 61.9839 52.5352 61.9839Z" fill="#5787D9"/>
<path fill-rule="evenodd" clip-rule="evenodd" d="M53.5322 61.3205C53.5322 61.652 53.8637 61.4863 54.0294 61.4863C54.0294 61.3205 53.698 61.3205 53.8637 61.1548C53.698 60.9891 53.5322 61.3205 53.5322 61.3205Z" fill="#5787D9"/>
<path fill-rule="evenodd" clip-rule="evenodd" d="M54.1931 61.4867C54.1931 61.321 54.1931 61.321 54.1931 61.1553C54.1931 61.1553 54.0273 61.1553 54.0273 61.4867C54.0273 61.4867 54.0273 61.321 54.1931 61.4867Z" fill="#5787D9"/>
<path fill-rule="evenodd" clip-rule="evenodd" d="M54.1934 61.6517C54.3591 61.8174 54.3591 61.3202 54.6905 61.6517C54.5248 61.1545 54.3591 61.3202 54.1934 61.6517Z" fill="#5787D9"/>
<path fill-rule="evenodd" clip-rule="evenodd" d="M44.748 49.3876C44.748 49.719 44.9138 49.5533 44.9138 49.3876C44.9138 49.0561 44.9138 49.3876 44.748 49.3876Z" fill="#5787D9"/>
<path fill-rule="evenodd" clip-rule="evenodd" d="M49.3896 51.708C49.3896 52.0395 49.7211 52.0395 49.5554 51.708C49.5554 51.708 49.5554 51.708 49.3896 51.708Z" fill="#5787D9"/>
<path fill-rule="evenodd" clip-rule="evenodd" d="M50.2178 51.7074C50.2178 51.8732 50.3835 51.8732 50.5492 51.8732C50.5492 51.5417 50.3835 51.7074 50.2178 51.7074Z" fill="#5787D9"/>
<path fill-rule="evenodd" clip-rule="evenodd" d="M50.88 52.5361C50.7143 52.7019 51.2115 52.8676 51.0458 52.5361C51.0458 52.3704 51.0458 52.7019 50.88 52.5361Z" fill="#5787D9"/>
<path fill-rule="evenodd" clip-rule="evenodd" d="M45.4111 51.3764C45.4111 51.5421 45.7426 51.2107 45.9083 51.2107C45.7426 50.8792 45.5769 51.2107 45.4111 51.3764Z" fill="#5787D9"/>
<path fill-rule="evenodd" clip-rule="evenodd" d="M47.7324 47.2328C48.0639 47.3985 48.2296 46.9013 48.3953 46.7356C48.2296 46.5699 48.0639 47.2328 47.7324 47.2328Z" fill="#5787D9"/>
<path fill-rule="evenodd" clip-rule="evenodd" d="M48.2275 51.0451C48.3933 51.5423 48.3933 50.7137 48.559 51.2109C48.559 51.2109 48.559 51.0451 48.559 50.8794C48.3933 50.8794 48.3933 50.8794 48.2275 51.0451Z" fill="#5787D9"/>
<path fill-rule="evenodd" clip-rule="evenodd" d="M48.0625 48.2279C48.0625 48.3937 48.2282 48.2279 48.2282 48.2279C48.2282 48.0622 48.2282 48.0622 48.2282 47.8965C48.0625 47.8965 48.0625 48.0622 48.0625 48.2279Z" fill="#5787D9"/>
<path fill-rule="evenodd" clip-rule="evenodd" d="M48.3926 48.7256C48.3926 48.8913 48.5583 49.057 48.5583 48.8913C48.5583 48.7256 48.3926 48.7256 48.3926 48.7256Z" fill="#5787D9"/>
<path fill-rule="evenodd" clip-rule="evenodd" d="M48.7256 48.0622C48.8913 48.2279 49.2228 48.3937 49.2228 48.2279C49.057 48.0622 49.057 48.2279 49.057 47.8965C49.057 48.0622 48.8913 48.0622 48.7256 48.0622Z" fill="#5787D9"/>
<path fill-rule="evenodd" clip-rule="evenodd" d="M49.8848 47.8957C49.8848 48.3929 50.7134 48.2272 50.5477 47.73V47.8957C50.382 47.73 50.0505 48.0614 49.8848 47.8957Z" fill="#5787D9"/>
<path fill-rule="evenodd" clip-rule="evenodd" d="M48.5605 50.8786C48.5605 51.0444 48.5605 51.0444 48.7263 51.2101C48.892 51.2101 48.7263 50.7129 48.892 50.8786C49.0577 50.7129 48.7263 50.7129 48.7263 50.7129C48.7263 50.7129 48.7263 50.8786 48.5605 50.8786Z" fill="#5787D9"/>
<path fill-rule="evenodd" clip-rule="evenodd" d="M48.3926 48.0623C48.5583 48.3937 48.724 48.0623 48.724 47.8965V47.7308C48.8898 47.8965 48.8898 47.5651 48.8898 47.3993C48.8898 47.3993 48.8898 47.5651 49.0555 47.5651C49.2212 47.5651 49.2212 47.3993 49.2212 47.2336C49.0555 47.3993 49.0555 47.3993 48.724 47.2336V47.3993C48.5583 47.3993 48.5583 47.3993 48.5583 47.5651C48.5583 47.3993 48.5583 47.2336 48.3926 47.2336C48.3926 47.0679 48.5583 47.2336 48.5583 47.0679C48.5583 47.2336 48.3926 47.2336 48.3926 47.3993C48.5583 47.3993 48.5583 47.5651 48.5583 47.8965C48.5583 47.7308 48.724 47.8965 48.724 47.8965C48.724 48.0623 48.3926 47.8965 48.3926 48.0623Z" fill="#5787D9"/>
<path fill-rule="evenodd" clip-rule="evenodd" d="M48.8906 51.2109C49.0564 51.0451 49.0564 51.0451 49.0564 51.0451C49.0564 50.8794 49.0564 50.8794 49.0564 50.8794C49.2221 50.8794 48.8906 50.8794 48.8906 51.2109Z" fill="#5787D9"/>
<path fill-rule="evenodd" clip-rule="evenodd" d="M49.0557 47.5645C49.2214 47.896 49.2214 47.3988 49.2214 47.233C49.2214 47.233 49.2214 47.3988 49.3871 47.3988C49.2214 46.9016 49.2214 47.5645 49.0557 47.5645Z" fill="#5787D9"/>
<path fill-rule="evenodd" clip-rule="evenodd" d="M49.5547 57.0115C49.8861 57.1772 50.0519 56.68 50.2176 56.5143C50.0519 56.3486 49.8861 56.8458 49.5547 57.0115Z" fill="#5787D9"/>
<path fill-rule="evenodd" clip-rule="evenodd" d="M50.0498 60.6574C50.2155 61.1546 50.2155 60.326 50.3813 60.8232C50.3813 60.8232 50.3813 60.6574 50.3813 60.4917C50.2155 60.6574 50.2155 60.6574 50.0498 60.6574Z" fill="#5787D9"/>
<path fill-rule="evenodd" clip-rule="evenodd" d="M49.8848 57.8403C49.8848 58.006 50.0505 57.8403 50.0505 57.8403C50.0505 57.6745 50.0505 57.6745 50.0505 57.5088C50.0505 57.6745 50.0505 57.8403 49.8848 57.8403Z" fill="#5787D9"/>
<path fill-rule="evenodd" clip-rule="evenodd" d="M50.2178 58.3374C50.2178 58.5031 50.3835 58.6689 50.3835 58.5031C50.3835 58.5031 50.3835 58.3374 50.2178 58.3374Z" fill="#5787D9"/>
<path fill-rule="evenodd" clip-rule="evenodd" d="M50.5479 57.8396C50.7136 58.0053 51.045 58.171 51.045 58.0053C50.8793 57.8396 50.8793 58.0053 50.8793 57.6738C50.8793 57.8396 50.7136 57.8396 50.5479 57.8396Z" fill="#5787D9"/>
<path fill-rule="evenodd" clip-rule="evenodd" d="M51.707 57.508C51.707 58.0052 52.5357 57.8395 52.37 57.3423V57.508C52.2042 57.3423 52.0385 57.8395 51.707 57.508Z" fill="#5787D9"/>
<path fill-rule="evenodd" clip-rule="evenodd" d="M54.1934 57.8403C54.1934 58.0061 54.3591 57.8403 54.5248 57.8403C54.3591 57.8403 54.1934 57.8403 54.1934 57.8403Z" fill="#5787D9"/>
<path fill-rule="evenodd" clip-rule="evenodd" d="M50.5479 60.6574C50.5479 60.8232 50.5479 60.8232 50.7136 60.9889C50.8793 60.9889 50.7136 60.4917 50.8793 60.6574C51.045 60.4917 50.7136 60.4917 50.7136 60.4917C50.5479 60.4917 50.5479 60.6574 50.5479 60.6574Z" fill="#5787D9"/>
<path fill-rule="evenodd" clip-rule="evenodd" d="M50.2178 57.6746C50.3835 58.006 50.5492 57.6746 50.5492 57.5088V57.3431C50.715 57.5088 50.715 57.1774 50.715 57.0116C50.715 57.0116 50.715 57.1774 50.8807 57.1774C51.0464 57.1774 51.0464 57.0116 51.0464 56.8459C50.8807 57.0116 50.8807 57.0116 50.5492 56.8459V57.0116C50.3835 57.0116 50.3835 57.0116 50.3835 57.1774C50.3835 57.0116 50.3835 56.8459 50.2178 56.8459C50.2178 56.6802 50.3835 56.8459 50.3835 56.6802C50.3835 56.8459 50.2178 56.8459 50.2178 57.0116C50.3835 57.0116 50.3835 57.1774 50.3835 57.5088C50.3835 57.3431 50.5492 57.5088 50.5492 57.5088C50.5492 57.8403 50.3835 57.6746 50.2178 57.6746Z" fill="#5787D9"/>
<path fill-rule="evenodd" clip-rule="evenodd" d="M50.7129 60.9883C50.8786 60.8225 50.8786 60.8225 50.8786 60.8225C50.8786 60.6568 50.8786 60.6568 50.8786 60.6568C51.0444 60.4911 50.7129 60.6568 50.7129 60.9883Z" fill="#5787D9"/>
<path fill-rule="evenodd" clip-rule="evenodd" d="M50.8779 57.3433C51.0437 57.6748 51.0437 57.1776 51.0437 57.0119C51.0437 57.0119 51.0437 57.1776 51.2094 57.1776C51.2094 56.6804 51.0437 57.3433 50.8779 57.3433Z" fill="#5787D9"/>
<path fill-rule="evenodd" clip-rule="evenodd" d="M46.4053 59.331C46.571 59.331 46.7367 59.1652 46.7367 58.9995C46.7367 58.9995 46.571 59.1652 46.4053 59.331Z" fill="#5787D9"/>
<path fill-rule="evenodd" clip-rule="evenodd" d="M49.2207 63.6405C49.2207 63.8063 49.3864 63.6405 49.3864 63.6405C49.3864 63.4748 49.3864 63.4748 49.3864 63.3091C49.3864 63.4748 49.3864 63.6405 49.2207 63.6405Z" fill="#5787D9"/>
<path fill-rule="evenodd" clip-rule="evenodd" d="M49.5547 64.1382C49.5547 64.3039 49.7204 64.4696 49.7204 64.3039C49.7204 64.1382 49.7204 64.1382 49.5547 64.1382Z" fill="#5787D9"/>
<path fill-rule="evenodd" clip-rule="evenodd" d="M49.8848 63.6403C50.0505 63.8061 50.382 63.9718 50.382 63.8061C50.2162 63.6403 50.2162 63.8061 50.2162 63.4746C50.2162 63.6403 50.0505 63.6403 49.8848 63.6403Z" fill="#5787D9"/>
<path fill-rule="evenodd" clip-rule="evenodd" d="M48.5605 64.8005C48.5605 65.2977 49.3892 65.132 49.2235 64.6348V64.8005C49.0577 64.6348 48.892 64.9662 48.5605 64.8005Z" fill="#5787D9"/>
<path fill-rule="evenodd" clip-rule="evenodd" d="M53.5322 63.6401C53.5322 63.8058 53.698 63.6401 53.8637 63.6401C53.698 63.4743 53.5322 63.6401 53.5322 63.6401Z" fill="#5787D9"/>
<path fill-rule="evenodd" clip-rule="evenodd" d="M46.7367 59.6624C46.7367 59.8282 46.9025 59.6624 46.9025 59.6624C46.9025 59.4967 46.9025 59.4967 46.7367 59.6624C46.9025 59.6624 46.9025 59.4967 46.9025 59.331C46.9025 59.331 47.0682 59.331 46.9025 59.1652C46.7367 59.1652 46.7367 59.1652 46.7367 59.1652C46.7367 59.1652 46.7367 59.1652 46.7367 59.331C46.7367 59.331 46.7367 59.331 46.571 59.331C46.571 59.1652 46.571 59.1652 46.571 59.1652C46.571 58.9995 46.7367 59.1652 46.571 58.9995C46.571 58.9995 46.571 58.9995 46.4053 59.1652C46.7367 59.331 46.7367 59.331 46.7367 59.6624C46.7367 59.4967 46.7367 59.4967 46.7367 59.6624C46.9025 59.6624 46.7367 59.6624 46.7367 59.6624Z" fill="#5787D9"/>
<path fill-rule="evenodd" clip-rule="evenodd" d="M47.0684 59.4976C47.0684 59.4976 47.2341 59.3318 47.0684 59.4976C47.2341 59.3318 47.2341 59.4976 47.2341 59.3318C47.2341 59.1661 47.0684 59.3318 47.0684 59.4976Z" fill="#5787D9"/>
<path fill-rule="evenodd" clip-rule="evenodd" d="M40.1076 55.8516C40.1076 55.8516 39.7762 55.8516 39.9419 56.0173C40.1076 55.8516 40.2734 56.3487 40.1076 56.5145C40.1076 56.5145 40.2734 56.5145 40.2734 56.6802C40.4391 56.3488 40.1076 56.183 40.1076 55.8516Z" fill="#5787D9"/>
<path fill-rule="evenodd" clip-rule="evenodd" d="M40.9369 56.5138C40.9369 56.3481 40.9369 56.0166 40.9369 56.0166C40.7712 56.0166 40.9369 56.3481 40.9369 56.5138C40.9369 56.5138 40.9369 56.6795 40.9369 56.5138C41.2684 56.5138 41.2684 56.6795 41.5999 56.5138C41.5999 56.3481 41.4341 56.3481 41.4341 56.5138C41.4341 56.1823 41.2684 56.3481 41.1027 56.0166C41.1027 56.1823 41.1027 56.3481 41.1027 56.3481C41.1027 56.5138 40.9369 56.5138 40.9369 56.5138Z" fill="#5787D9"/>
<path fill-rule="evenodd" clip-rule="evenodd" d="M43.0913 59.8281C42.9256 59.4966 43.2571 59.4966 43.2571 59.4966C43.2571 59.1652 42.9256 59.8281 43.0913 59.8281Z" fill="#5787D9"/>
<path fill-rule="evenodd" clip-rule="evenodd" d="M44.4154 55.0219C44.2497 55.0219 44.2497 54.8562 44.084 55.0219C44.084 55.1876 44.084 55.1876 44.084 55.3534C44.084 55.3534 44.2497 55.1876 44.4154 55.0219C44.2497 55.1876 44.2497 55.1876 44.2497 55.1876H44.4154C44.4154 55.1876 44.2497 55.1876 44.4154 55.0219Z" fill="#5787D9"/>
<path fill-rule="evenodd" clip-rule="evenodd" d="M44.249 54.6904C44.4148 54.8562 44.9119 55.0219 45.0777 55.0219C45.0777 55.0219 45.0777 55.0219 45.0777 55.1876V55.0219C45.2434 55.0219 45.2434 55.0219 45.2434 55.0219C45.2434 55.0219 45.2434 55.0219 45.2434 55.1876C45.7406 55.0219 46.2378 55.1876 46.5692 55.1876C46.4035 55.0219 46.5692 55.0219 46.5692 54.8561C46.5692 54.8561 46.5692 54.8561 46.735 54.8561C46.735 55.0219 46.5692 54.8562 46.735 55.0219C46.9007 54.8562 46.9007 55.0219 46.9007 54.6904C46.9007 54.5247 46.735 54.8562 46.735 54.6904C46.0721 54.6904 45.7406 54.6904 44.7462 54.8561C44.7462 54.8561 44.7462 54.6904 44.5805 54.6904C44.5805 54.6904 44.4148 54.6904 44.4148 54.8561C44.4148 54.8561 44.249 54.8562 44.249 54.6904C44.249 54.6904 44.4148 54.6904 44.249 54.6904Z" fill="#5787D9"/>
<path fill-rule="evenodd" clip-rule="evenodd" d="M41.7627 55.5196C41.7627 55.6853 41.7627 55.5196 41.7627 55.5196C41.9284 55.6853 41.9284 55.6853 41.7627 55.6853C41.9284 55.851 42.0942 55.6853 42.2599 55.6853C42.0942 55.5196 42.5913 55.3538 42.7571 55.5196V55.3538L42.9228 55.5196C42.9228 55.5196 42.9228 55.5196 42.9228 55.3538C43.0885 55.3538 43.0885 55.1881 43.0885 55.0224C43.0885 55.1881 43.2543 55.0224 43.2543 55.0224C43.0885 55.0224 43.2543 54.8566 43.42 54.8566C43.2543 54.8566 43.2543 54.6909 43.0885 54.6909C43.0885 54.6909 43.0885 54.6909 43.0885 54.8566C43.0885 55.0224 42.9228 55.0224 42.9228 55.0224V55.1881C42.9228 55.0224 42.7571 55.1881 42.5913 55.0224C42.5913 55.0224 42.5913 55.0224 42.4256 55.1881C42.4256 55.3538 42.4256 55.1881 42.5913 55.1881C42.5913 55.1881 42.5913 55.1881 42.5913 55.3538C42.2599 55.3538 41.9284 55.5196 41.7627 55.5196Z" fill="#5787D9"/>
<path fill-rule="evenodd" clip-rule="evenodd" d="M41.7634 54.1943C41.7634 54.3601 41.5977 54.1943 41.5977 54.3601C41.5977 54.3601 41.7634 54.1943 41.7634 54.1943Z" fill="#5787D9"/>
<path fill-rule="evenodd" clip-rule="evenodd" d="M49.7186 51.2102C49.3871 51.0444 49.3871 51.2102 49.0557 51.0444C49.0557 51.2102 49.0557 51.2102 49.2214 51.2102V51.3759C49.3871 51.0444 49.7186 51.2102 49.8843 51.3759C49.7186 51.3759 49.3871 51.2102 49.7186 51.2102Z" fill="#5787D9"/>
<path fill-rule="evenodd" clip-rule="evenodd" d="M50.3823 51.2109C50.3823 51.3766 50.548 51.0451 50.548 50.8794L50.3823 51.0451C50.2165 51.0451 50.3823 51.2109 50.3823 51.2109Z" fill="#5787D9"/>
<path fill-rule="evenodd" clip-rule="evenodd" d="M49.8848 57.3427C50.0505 57.5084 50.0505 57.5084 50.382 57.6742V57.5084C50.382 57.3427 50.2162 57.5084 50.2162 57.3427C50.2162 57.3427 50.0505 57.177 49.8848 57.3427Z" fill="#5787D9"/>
<path fill-rule="evenodd" clip-rule="evenodd" d="M44.249 61.321C44.4148 61.4867 44.5805 61.4867 44.4148 61.1553C44.249 61.1553 44.4148 61.321 44.249 61.321Z" fill="#5787D9"/>
<path fill-rule="evenodd" clip-rule="evenodd" d="M49.3896 47.2328C49.7211 47.3985 49.8868 46.9013 50.0526 46.7356C49.8868 46.5699 49.7211 47.2328 49.3896 47.2328Z" fill="#5787D9"/>
<path fill-rule="evenodd" clip-rule="evenodd" d="M49.8848 51.0451C50.0505 51.5423 50.0505 50.7137 50.2162 51.2109C50.2162 51.2109 50.2162 51.0451 50.2162 50.8794C50.0505 50.8794 50.0505 50.8794 49.8848 51.0451Z" fill="#5787D9"/>
<path fill-rule="evenodd" clip-rule="evenodd" d="M49.7197 48.2279C49.7197 48.3937 49.8855 48.2279 49.8855 48.2279C49.8855 48.0622 49.8855 48.0622 49.8855 47.8965C49.8855 47.8965 49.8855 48.0622 49.7197 48.2279Z" fill="#5787D9"/>
<path fill-rule="evenodd" clip-rule="evenodd" d="M50.0498 48.7256C50.0498 48.8913 50.2155 49.057 50.2155 48.8913C50.2155 48.7256 50.2155 48.7256 50.0498 48.7256Z" fill="#5787D9"/>
<path fill-rule="evenodd" clip-rule="evenodd" d="M50.3828 48.0622C50.5485 48.2279 50.88 48.3937 50.88 48.2279C50.7143 48.0622 50.7143 48.2279 50.7143 47.8965C50.88 48.0622 50.7143 48.0622 50.3828 48.0622Z" fill="#5787D9"/>
<path fill-rule="evenodd" clip-rule="evenodd" d="M40.1055 52.7023C40.1055 53.1995 40.9341 53.0338 40.7684 52.5366V52.7023C40.4369 52.7023 40.2712 53.0338 40.1055 52.7023Z" fill="#5787D9"/>
<path fill-rule="evenodd" clip-rule="evenodd" d="M42.4268 53.2C42.4268 53.3657 42.5925 53.2 42.7582 53.2C42.7582 53.0343 42.5925 53.0343 42.4268 53.2Z" fill="#5787D9"/>
<path fill-rule="evenodd" clip-rule="evenodd" d="M50.3828 50.8786C50.3828 51.0444 50.3828 51.0444 50.5485 51.2101C50.7143 51.2101 50.5485 50.7129 50.7143 50.8786C50.88 50.7129 50.5485 50.7129 50.5485 50.7129C50.5485 50.7129 50.5485 50.8786 50.3828 50.8786Z" fill="#5787D9"/>
<path fill-rule="evenodd" clip-rule="evenodd" d="M50.0498 48.0623C50.2155 48.3937 50.3813 48.0623 50.3813 47.8965V47.7308C50.547 47.8965 50.547 47.5651 50.547 47.3993C50.547 47.3993 50.547 47.5651 50.7127 47.5651C50.8785 47.5651 50.8785 47.3993 50.8785 47.2336C50.7127 47.3993 50.7127 47.3993 50.3813 47.2336V47.3993C50.2155 47.3993 50.2155 47.3993 50.2155 47.5651C50.2155 47.3993 50.2155 47.2336 50.0498 47.2336C50.0498 47.0679 50.2155 47.2336 50.2155 47.0679C50.2155 47.2336 50.0498 47.2336 50.0498 47.3993C50.2155 47.3993 50.2155 47.5651 50.2155 47.8965C50.2155 47.7308 50.3813 47.8965 50.3813 47.8965C50.3813 48.0623 50.2155 47.8965 50.0498 48.0623Z" fill="#5787D9"/>
<path fill-rule="evenodd" clip-rule="evenodd" d="M50.7144 51.2109C50.8801 51.0451 50.8801 51.0451 50.8801 51.0451C50.8801 50.8794 50.8801 50.8794 50.8801 50.8794C50.8801 50.8794 50.5486 50.8794 50.7144 51.2109Z" fill="#5787D9"/>
<path fill-rule="evenodd" clip-rule="evenodd" d="M50.8779 47.5645C51.0437 47.896 51.0437 47.3988 51.0437 47.233C51.0437 47.233 51.0437 47.3988 51.2094 47.3988C51.0437 46.9016 51.0437 47.5645 50.8779 47.5645Z" fill="#5787D9"/>
<path fill-rule="evenodd" clip-rule="evenodd" d="M49.8836 57.3425C49.5522 57.1768 49.5522 57.3425 49.2207 57.1768C49.2207 57.3425 49.2207 57.3425 49.3864 57.3425V57.5082C49.5522 57.1768 49.8836 57.3425 50.0494 57.5082C49.8836 57.674 49.5522 57.3425 49.8836 57.3425Z" fill="#5787D9"/>
<path fill-rule="evenodd" clip-rule="evenodd" d="M50.5478 57.5082C50.5478 57.674 50.7136 57.3425 50.7136 57.1768L50.5478 57.3425C50.3821 57.3425 50.7136 57.3425 50.5478 57.5082Z" fill="#5787D9"/>
<path fill-rule="evenodd" clip-rule="evenodd" d="M50.7129 53.0338C50.7129 53.0338 50.8786 53.0338 50.7129 53.0338C50.7129 53.1995 50.7129 53.1995 50.7129 53.1995C50.7129 52.8681 51.2101 53.1995 51.0443 52.5366C50.8786 52.5366 51.0443 52.7023 51.0443 52.7023C51.0443 52.8681 50.8786 52.8681 50.7129 53.0338Z" fill="#5787D9"/>
<path fill-rule="evenodd" clip-rule="evenodd" d="M49.2228 56.846C49.2228 56.846 49.2228 56.6803 49.2228 56.846C49.2228 56.6803 49.2228 56.5146 49.2228 56.6803V56.5146C49.057 56.5146 49.057 56.5146 49.057 56.5146V56.3488C49.057 56.1831 48.8913 56.3488 48.8913 56.1831V56.3488C48.8913 56.3488 48.8913 56.5146 48.7256 56.5146C48.7256 56.5146 48.7256 56.5146 48.7256 56.6803C49.057 56.6803 49.057 56.6803 49.2228 56.846Z" fill="#5787D9"/>
<path fill-rule="evenodd" clip-rule="evenodd" d="M43.0898 52.8676C43.0898 53.0333 43.0898 52.8676 43.0898 52.8676C43.2556 52.7019 43.0898 52.8676 43.0898 52.8676Z" fill="#5787D9"/>
<path fill-rule="evenodd" clip-rule="evenodd" d="M43.4209 53.696C43.4209 53.696 43.4209 53.8617 43.4209 53.696C43.4209 53.696 43.7524 53.8617 43.7524 53.696V53.8617C43.7524 53.8617 44.0838 53.696 44.2496 53.5303C44.2496 53.696 44.4153 53.3645 44.4153 53.696V53.5303C44.581 53.696 44.581 53.3645 44.7467 53.5303C44.7467 53.5303 44.7467 53.1988 44.7467 53.3645C44.7467 53.1988 44.581 53.3645 44.581 53.5303C44.4153 53.5303 44.4153 53.5303 44.4153 53.696C44.4153 53.696 44.4153 53.696 44.4153 53.5303C44.2495 53.5303 44.2496 53.696 44.2496 53.5303C44.4153 53.8617 43.9181 53.5303 43.9181 53.8617C43.7524 53.696 43.5866 53.696 43.4209 53.696Z" fill="#5787D9"/>
<path fill-rule="evenodd" clip-rule="evenodd" d="M44.0847 56.1818C44.0847 56.1818 44.2504 56.1818 44.0847 56.1818C44.2504 56.3475 44.2504 56.3475 44.2504 56.3475C44.4161 56.3475 44.4161 56.3475 44.5819 56.5133C44.5819 56.3475 44.9133 56.3475 44.9133 56.0161C44.9133 56.0161 44.9133 56.0161 45.0791 56.0161C45.0791 55.8503 45.0791 55.8503 45.2448 55.8503C45.2448 55.5189 45.5762 55.5189 45.5762 55.3532H45.4105C45.0791 55.3532 44.5819 55.8503 44.2504 55.3532C44.2504 55.3532 44.4161 55.5189 44.5819 55.3532C44.4161 55.1874 44.4161 55.1874 44.2504 55.0217C44.2504 54.856 44.4161 55.0217 44.4161 54.856C44.4161 54.856 44.4161 54.856 44.2504 54.856C44.4161 55.0217 44.0847 55.0217 44.0847 55.0217C44.0847 55.0217 44.0847 55.0217 44.0847 55.1874C44.0847 55.1874 44.2504 55.0217 44.2504 55.1874C44.2504 55.5189 44.0847 55.3532 43.9189 55.3532C44.0847 55.3532 44.2504 55.6846 44.4161 55.8503C44.4161 55.8503 44.5819 55.8503 44.5819 56.0161C44.5819 56.0161 44.5819 55.8503 44.7476 55.8503C44.7476 55.8503 44.7476 56.0161 44.9133 56.0161C44.9133 56.0161 44.9133 56.0161 44.9133 56.1818C44.9133 56.3475 44.5819 56.1818 44.7476 56.3475C44.7476 56.1818 44.9133 56.3475 44.7476 56.1818C44.7476 56.1818 44.5819 56.1818 44.7476 56.3475C44.2504 56.3475 44.2504 56.1818 44.0847 56.1818Z" fill="#5787D9"/>
<path fill-rule="evenodd" clip-rule="evenodd" d="M43.5889 53.3645C43.7546 53.1987 43.7546 53.1987 43.5889 53.1987C43.5889 53.1987 43.7546 53.3645 43.5889 53.3645Z" fill="#5787D9"/>
<path fill-rule="evenodd" clip-rule="evenodd" d="M44.417 53.3645C44.417 53.3645 44.5827 53.3645 44.5827 53.1987C44.5827 53.1987 44.417 53.1987 44.417 53.3645Z" fill="#5787D9"/>
<path fill-rule="evenodd" clip-rule="evenodd" d="M44.9135 54.8572C44.9135 54.5257 44.7478 54.8572 44.582 55.0229C44.7478 54.8572 44.9135 54.8572 44.9135 54.8572Z" fill="#5787D9"/>
<path fill-rule="evenodd" clip-rule="evenodd" d="M47.8962 55.6855C47.8962 55.5198 47.7304 55.6856 47.7304 55.5198C47.7304 55.6856 47.5647 55.6856 47.5647 55.8513C47.399 55.8513 47.2332 55.6856 47.2332 55.3541C46.9018 55.0226 46.5703 55.3541 46.5703 55.6855C46.5703 56.3485 46.736 56.6799 46.9018 56.6799C47.2332 56.8457 47.399 56.017 47.7304 56.3485C47.7304 56.3485 48.0619 56.1827 48.2276 56.017C48.2276 55.8513 48.2276 55.8513 48.2276 55.6855C48.2276 55.6855 48.0619 55.6855 47.8962 55.6855C47.8962 55.5198 47.8962 55.5198 47.8962 55.6855Z" fill="#5787D9"/>
<path fill-rule="evenodd" clip-rule="evenodd" d="M20.8825 15.9092C20.7168 15.9092 20.7168 16.0749 20.7168 16.2406C20.8825 16.2406 20.8825 16.2406 21.214 16.2406V16.0749C21.0483 16.2406 20.8825 16.0749 20.8825 15.9092Z" fill="#5787D9"/>
<path fill-rule="evenodd" clip-rule="evenodd" d="M22.3742 23.8638C22.0427 23.8638 22.2084 24.1952 22.2084 24.361C22.5399 24.1952 22.3742 24.0295 22.3742 23.8638Z" fill="#5787D9"/>
<path fill-rule="evenodd" clip-rule="evenodd" d="M1.16305 64.1362C0.997318 64.1362 0.831588 64.6334 1.16305 64.6334C1.16305 64.4677 1.32878 64.4677 1.16305 64.1362Z" fill="#5787D9"/>
<path fill-rule="evenodd" clip-rule="evenodd" d="M1.32826 64.9648C0.996796 65.462 1.16253 65.462 1.16253 66.125C1.49399 65.7935 1.32826 65.2963 1.32826 64.9648Z" fill="#5787D9"/>
<path fill-rule="evenodd" clip-rule="evenodd" d="M0.994141 66.7886C1.49133 66.9543 1.3256 67.2858 1.3256 67.783C1.65706 67.4515 1.82279 66.7886 0.994141 66.7886Z" fill="#5787D9"/>
<path fill-rule="evenodd" clip-rule="evenodd" d="M0.332893 68.9429C0.167163 68.9429 0.167163 69.1086 0.167163 69.1086C-0.164298 69.2743 0.332893 69.4401 0.498623 69.2743C0.498623 69.2743 0.664354 69.1086 0.498623 68.9429C0.332893 69.1086 0.332893 69.1086 0.332893 68.9429Z" fill="#5787D9"/>
<path fill-rule="evenodd" clip-rule="evenodd" d="M1.32601 66.125C1.32601 66.2907 0.994545 66.7879 1.49174 66.6222C1.32601 66.4565 1.32601 66.4565 1.32601 66.125Z" fill="#5787D9"/>
<path fill-rule="evenodd" clip-rule="evenodd" d="M12.7637 71.9267C12.7637 72.0924 12.9294 72.0924 12.9294 72.0924C12.9294 71.761 12.7637 71.9267 12.7637 71.9267Z" fill="#5787D9"/>
<path fill-rule="evenodd" clip-rule="evenodd" d="M16.7383 71.5938C16.904 71.7595 17.0697 71.7595 17.2355 71.5938C17.0697 71.5938 16.904 71.5938 16.7383 71.5938Z" fill="#5787D9"/>
<path fill-rule="evenodd" clip-rule="evenodd" d="M16.7383 70.9321C16.7383 71.0979 16.904 71.0979 16.904 71.2636C16.904 70.9321 16.7383 70.9321 16.7383 70.9321Z" fill="#5787D9"/>
<path fill-rule="evenodd" clip-rule="evenodd" d="M17.073 71.2629C17.2387 71.2629 17.073 71.2629 17.073 71.2629C17.073 71.4286 17.2387 71.4286 17.2387 71.5944V71.4286C17.2387 71.2629 17.2387 71.2629 17.073 71.2629C17.073 71.0972 17.073 71.0972 16.9072 71.0972V71.2629C17.073 71.4286 17.073 71.0972 17.073 71.2629Z" fill="#5787D9"/>
<path fill-rule="evenodd" clip-rule="evenodd" d="M17.4023 71.5938C17.4023 71.7595 17.5681 71.5938 17.5681 71.5938C17.7338 71.5938 17.5681 71.9252 17.7338 71.5938C17.5681 71.5938 17.4023 71.5938 17.4023 71.5938Z" fill="#5787D9"/>
<path fill-rule="evenodd" clip-rule="evenodd" d="M18.5645 71.097C18.7302 71.097 18.7302 71.097 18.5645 71.097C18.7302 70.9312 18.5645 70.9312 18.5645 71.097Z" fill="#5787D9"/>
<path fill-rule="evenodd" clip-rule="evenodd" d="M18.7295 70.2695C18.8952 70.4352 18.8952 70.2695 18.7295 70.2695C18.8952 70.1037 18.7295 70.2695 18.7295 70.2695Z" fill="#5787D9"/>
<path fill-rule="evenodd" clip-rule="evenodd" d="M14.751 70.6001C14.751 70.7658 14.9167 70.7658 14.9167 70.7658C14.751 70.6001 14.751 70.6001 14.751 70.6001Z" fill="#5787D9"/>
<path fill-rule="evenodd" clip-rule="evenodd" d="M15.5801 71.7597C15.7458 71.7597 15.7458 71.7597 15.5801 71.7597C15.7458 71.594 15.5801 71.7597 15.5801 71.7597Z" fill="#5787D9"/>
<path fill-rule="evenodd" clip-rule="evenodd" d="M15.7451 71.9256C15.9108 71.7598 15.7451 71.7598 15.7451 71.9256V71.9256Z" fill="#5787D9"/>
<path fill-rule="evenodd" clip-rule="evenodd" d="M23.0381 66.9536C23.2038 67.1193 23.2038 67.1193 23.5353 67.2851V67.1193C23.5353 66.9536 23.3695 67.1193 23.3695 66.9536C23.3695 66.9536 23.2038 66.9536 23.0381 66.9536Z" fill="#5787D9"/>
<path fill-rule="evenodd" clip-rule="evenodd" d="M16.2432 69.1079C16.2432 69.2736 16.4089 69.1079 16.4089 69.2736C16.4089 69.4394 16.4089 69.4394 16.2432 69.4394C16.2432 69.7708 16.4089 69.2736 16.4089 69.6051H16.5746C16.5746 69.4394 16.4089 69.6051 16.4089 69.6051C16.4089 69.4394 16.4089 69.4394 16.4089 69.2736C16.4089 69.1079 16.4089 69.1079 16.2432 69.1079Z" fill="#5787D9"/>
<path fill-rule="evenodd" clip-rule="evenodd" d="M18.2314 70.4351C18.2314 70.6008 18.2314 70.6008 18.2314 70.6008C18.2314 70.6008 18.2314 70.6008 18.3972 70.6008C18.3972 70.6008 18.3972 70.4351 18.2314 70.4351Z" fill="#5787D9"/>
<path fill-rule="evenodd" clip-rule="evenodd" d="M11.6016 72.7551C11.6016 72.9208 11.7673 73.0865 11.7673 72.5894C11.6016 72.5894 11.6016 72.9208 11.6016 72.7551Z" fill="#5787D9"/>
<path fill-rule="evenodd" clip-rule="evenodd" d="M13.0938 74.2461C13.0938 74.5776 13.4252 74.4118 13.5909 74.2461C13.7567 74.2461 13.7567 74.5776 13.7567 74.7433C13.9224 74.5776 13.9224 74.2461 13.9224 74.0804C13.7567 73.9146 13.4252 74.0804 13.5909 74.2461C13.2595 74.2461 13.0938 74.2461 13.0938 74.2461Z" fill="#5787D9"/>
<path fill-rule="evenodd" clip-rule="evenodd" d="M19.2246 69.2739C19.2246 69.4396 19.3903 69.2739 19.2246 69.2739C19.3903 69.1081 19.2246 69.2739 19.2246 69.2739Z" fill="#5787D9"/>
<path fill-rule="evenodd" clip-rule="evenodd" d="M19.7236 68.2793L19.8894 68.445C19.8894 68.2793 19.7236 68.2793 19.7236 68.2793Z" fill="#5787D9"/>
<path fill-rule="evenodd" clip-rule="evenodd" d="M22.873 70.7651C22.873 70.9309 23.0388 71.2623 23.2045 71.2623C23.0388 70.9309 23.0388 70.7651 22.873 70.7651Z" fill="#5787D9"/>
<path fill-rule="evenodd" clip-rule="evenodd" d="M7.95703 65.9592C8.12276 66.4564 8.12276 65.6277 8.28849 66.1249C8.28849 66.1249 8.28849 65.9592 8.28849 65.7935C8.12276 65.9592 8.12276 65.9592 7.95703 65.9592Z" fill="#5787D9"/>
<path fill-rule="evenodd" clip-rule="evenodd" d="M15.0811 63.1421C15.0811 63.3078 15.2468 63.4736 15.4125 63.3078C15.4125 63.1421 15.2468 63.3078 15.0811 63.1421Z" fill="#5787D9"/>
<path fill-rule="evenodd" clip-rule="evenodd" d="M17.7354 63.1428C17.9011 63.4742 18.0668 63.1428 18.2325 63.1428C18.2325 62.977 18.0668 63.3085 18.0668 62.9771C18.0668 63.1428 17.9011 62.977 17.7354 63.1428Z" fill="#5787D9"/>
<path fill-rule="evenodd" clip-rule="evenodd" d="M8.28711 65.9592C8.28711 66.1249 8.28711 66.1249 8.45284 66.2906C8.61857 66.2906 8.45284 65.7935 8.61857 65.9592C8.7843 65.7935 8.45284 65.7935 8.45284 65.7935C8.45284 65.7935 8.45284 65.9592 8.28711 65.9592Z" fill="#5787D9"/>
<path fill-rule="evenodd" clip-rule="evenodd" d="M8.62012 66.2914C8.78585 66.1257 8.78585 66.1257 8.78585 66.1257C8.78585 65.96 8.78585 65.96 8.78585 65.96C8.95158 65.96 8.62012 65.96 8.62012 66.2914Z" fill="#5787D9"/>
<path fill-rule="evenodd" clip-rule="evenodd" d="M14.0879 67.1193C14.0879 67.2851 14.2536 67.2851 14.2536 67.2851C14.2536 67.1193 14.2536 67.1193 14.2536 66.9536C14.2536 66.9536 14.0879 66.9536 14.0879 67.1193Z" fill="#5787D9"/>
<path fill-rule="evenodd" clip-rule="evenodd" d="M19.5586 66.4565C19.5586 66.7879 19.7243 66.4565 19.8901 66.6222C19.8901 66.2907 19.7243 66.4565 19.5586 66.4565Z" fill="#5787D9"/>
<path fill-rule="evenodd" clip-rule="evenodd" d="M24.3648 62.4789V62.3132C24.0333 62.3132 24.0333 62.8103 23.7019 62.6446C23.7019 62.4789 23.8676 62.6446 23.8676 62.4789C23.7019 62.3132 23.7019 62.6446 23.5361 62.4789C23.5361 62.8103 23.5361 62.6446 23.5361 62.9761C23.8676 62.9761 23.8676 62.8103 24.3648 62.8103C24.0333 62.4789 24.5305 62.6446 24.3648 62.4789C24.5305 62.8103 24.6962 62.6446 24.6962 62.4789C24.862 62.4789 24.6962 62.6446 24.862 62.8103C25.0277 62.6446 25.3592 62.8103 25.1934 62.4789C25.1934 62.4789 25.1934 62.4789 25.1934 62.3132C25.3592 62.3132 25.1934 62.6446 25.3592 62.6446C25.1934 62.4789 25.3592 62.4789 25.5249 62.3132C25.1934 61.816 24.6962 62.3132 24.3648 62.1474C24.3648 62.1474 24.3648 62.3132 24.3648 62.4789Z" fill="#5787D9"/>
<path fill-rule="evenodd" clip-rule="evenodd" d="M15.7451 72.7542C16.0766 72.9199 16.2423 72.4227 16.408 72.257C16.2423 72.0913 16.0766 72.5885 15.7451 72.7542Z" fill="#5787D9"/>
<path fill-rule="evenodd" clip-rule="evenodd" d="M16.2432 76.4016C16.4089 76.8988 16.4089 76.0701 16.5746 76.5673C16.5746 76.5673 16.5746 76.4016 16.5746 76.2358C16.4089 76.4016 16.4089 76.4016 16.2432 76.4016Z" fill="#5787D9"/>
<path fill-rule="evenodd" clip-rule="evenodd" d="M16.0781 73.7494C16.0781 73.9152 16.2439 73.7494 16.2439 73.7494C16.2439 73.5837 16.2439 73.5837 16.2439 73.418C16.2439 73.418 16.2439 73.5837 16.0781 73.7494Z" fill="#5787D9"/>
<path fill-rule="evenodd" clip-rule="evenodd" d="M16.4082 74.2454C16.4082 74.4111 16.5739 74.5769 16.5739 74.4111C16.5739 74.2454 16.5739 74.0797 16.4082 74.2454Z" fill="#5787D9"/>
<path fill-rule="evenodd" clip-rule="evenodd" d="M16.7383 73.5837C16.904 73.7494 17.2355 73.9152 17.2355 73.7494C17.0697 73.5837 17.0697 73.7494 17.0697 73.418C17.0697 73.5837 16.904 73.5837 16.7383 73.5837Z" fill="#5787D9"/>
<path fill-rule="evenodd" clip-rule="evenodd" d="M17.9004 73.2517C17.9004 73.7489 18.729 73.5831 18.5633 73.0859V73.2517C18.3976 73.2517 18.2319 73.5831 17.9004 73.2517Z" fill="#5787D9"/>
<path fill-rule="evenodd" clip-rule="evenodd" d="M20.3867 73.7493C20.3867 73.915 20.5524 73.7493 20.7182 73.7493C20.5524 73.5836 20.3867 73.5836 20.3867 73.7493Z" fill="#5787D9"/>
<path fill-rule="evenodd" clip-rule="evenodd" d="M23.5361 73.583C23.5361 73.7487 23.7019 73.9145 23.8676 73.7487C23.7019 73.583 23.5361 73.7487 23.5361 73.583Z" fill="#5787D9"/>
<path fill-rule="evenodd" clip-rule="evenodd" d="M26.1875 73.5837C26.3532 73.9152 26.519 73.5837 26.6847 73.5837C26.6847 73.418 26.519 73.7494 26.519 73.418C26.3532 73.5837 26.3532 73.418 26.1875 73.5837Z" fill="#5787D9"/>
<path fill-rule="evenodd" clip-rule="evenodd" d="M16.7383 76.4016C16.7383 76.5673 16.7383 76.5673 16.904 76.733C17.0697 76.733 16.904 76.2358 17.0697 76.4016C17.2355 76.2358 16.904 76.2358 16.904 76.2358C16.7383 76.2358 16.7383 76.4016 16.7383 76.4016Z" fill="#5787D9"/>
<path fill-rule="evenodd" clip-rule="evenodd" d="M16.4082 73.4167C16.5739 73.7482 16.7397 73.4167 16.7397 73.251V73.0853C16.9054 73.251 16.9054 72.9196 16.9054 72.7538C16.9054 72.7538 16.9054 72.9196 17.0711 72.9196C17.2369 72.9196 17.2369 72.7538 17.2369 72.5881C17.0711 72.7538 17.0711 72.7538 16.7397 72.5881V72.7538C16.5739 72.7538 16.5739 72.7538 16.5739 72.9196C16.5739 72.7538 16.5739 72.5881 16.4082 72.5881C16.4082 72.4224 16.5739 72.5881 16.5739 72.4224C16.5739 72.5881 16.4082 72.5881 16.4082 72.7538C16.5739 72.7538 16.5739 73.0853 16.5739 73.251C16.5739 73.0853 16.7397 73.251 16.7397 73.251C16.7397 73.5825 16.5739 73.4167 16.4082 73.4167Z" fill="#5787D9"/>
<path fill-rule="evenodd" clip-rule="evenodd" d="M16.9072 76.7323C17.073 76.5666 17.073 76.5666 17.073 76.5666C17.073 76.4009 17.073 76.4009 17.073 76.4009C17.2387 76.4009 16.9072 76.4009 16.9072 76.7323Z" fill="#5787D9"/>
<path fill-rule="evenodd" clip-rule="evenodd" d="M17.0723 73.0855C17.238 73.417 17.238 72.9198 17.238 72.754C17.238 72.754 17.238 72.9198 17.4037 72.9198C17.4037 72.4226 17.238 73.0855 17.0723 73.0855Z" fill="#5787D9"/>
<path fill-rule="evenodd" clip-rule="evenodd" d="M14.0879 65.6276C14.2536 65.6276 14.4194 65.4619 14.4194 65.2961C14.2536 65.1304 14.2536 65.4619 14.0879 65.6276Z" fill="#5787D9"/>
<path fill-rule="evenodd" clip-rule="evenodd" d="M14.4209 67.4517C14.4209 67.6174 14.4209 67.2859 14.4209 67.4517C14.5866 67.4517 14.4209 67.4517 14.4209 67.4517Z" fill="#5787D9"/>
<path fill-rule="evenodd" clip-rule="evenodd" d="M14.2529 65.9592C14.2529 66.1249 14.2529 65.9592 14.2529 65.9592C14.4187 65.7935 14.4187 65.9592 14.4187 65.7935C14.2529 65.9592 14.2529 65.9592 14.2529 65.9592Z" fill="#5787D9"/>
<path fill-rule="evenodd" clip-rule="evenodd" d="M14.4209 66.292C14.4209 66.4577 14.5866 66.4577 14.4209 66.292C14.5866 66.292 14.4209 66.292 14.4209 66.292Z" fill="#5787D9"/>
<path fill-rule="evenodd" clip-rule="evenodd" d="M14.5859 65.9592C14.5859 65.9592 14.7517 66.1249 14.9174 65.9592C14.9174 65.9592 14.7517 65.9592 14.9174 65.7935C14.7517 65.9592 14.7517 65.9592 14.5859 65.9592Z" fill="#5787D9"/>
<path fill-rule="evenodd" clip-rule="evenodd" d="M15.25 65.7942C15.25 65.9599 15.7472 65.9599 15.5815 65.6284C15.5815 65.6284 15.5815 65.6284 15.5815 65.7942C15.4157 65.7942 15.25 65.9599 15.25 65.7942Z" fill="#5787D9"/>
<path fill-rule="evenodd" clip-rule="evenodd" d="M14.5859 67.4516C14.5859 67.4516 14.5859 67.6173 14.5859 67.4516C14.5859 67.6173 14.5859 67.2859 14.5859 67.4516C14.7517 67.4516 14.5859 67.4516 14.5859 67.4516C14.5859 67.2859 14.5859 67.4516 14.5859 67.4516Z" fill="#5787D9"/>
<path fill-rule="evenodd" clip-rule="evenodd" d="M14.4187 65.9593C14.4187 66.125 14.5844 65.9593 14.5844 65.9593C14.5844 65.9593 14.5844 65.9593 14.5844 65.7936C14.7501 65.9593 14.5844 65.6278 14.7501 65.6278C14.7501 65.6278 14.9158 65.6278 14.7501 65.4621C14.5844 65.4621 14.5844 65.4621 14.5844 65.4621C14.5844 65.4621 14.5844 65.4621 14.5844 65.6278H14.4187C14.4187 65.4621 14.4187 65.4621 14.4187 65.4621C14.4187 65.2964 14.5844 65.4621 14.4187 65.2964C14.4187 65.2964 14.4187 65.4621 14.2529 65.4621C14.4187 65.6278 14.4187 65.6278 14.4187 65.9593C14.4187 65.7936 14.4187 65.7936 14.4187 65.9593C14.5844 65.9593 14.4187 65.9593 14.4187 65.9593Z" fill="#5787D9"/>
<path fill-rule="evenodd" clip-rule="evenodd" d="M14.751 67.6164C14.751 67.6164 14.751 67.4507 14.751 67.6164C14.9167 67.4507 14.9167 67.4507 14.9167 67.4507C14.9167 67.4507 14.751 67.4507 14.751 67.6164Z" fill="#5787D9"/>
<path fill-rule="evenodd" clip-rule="evenodd" d="M14.751 65.7934C14.9167 65.7934 14.9167 65.6277 14.9167 65.6277C14.9167 65.6277 14.9167 65.7934 14.9167 65.6277C14.9167 65.2962 14.9167 65.6277 14.751 65.7934Z" fill="#5787D9"/>
<path fill-rule="evenodd" clip-rule="evenodd" d="M9.7793 64.6337C9.7793 64.7994 9.94503 64.6337 10.1108 64.6337C9.94503 64.468 9.94503 64.6337 9.7793 64.6337Z" fill="#5787D9"/>
<path fill-rule="evenodd" clip-rule="evenodd" d="M12.9287 64.6348C12.9287 64.8005 13.0944 64.9662 13.2602 64.8005C13.0944 64.6348 12.9287 64.6348 12.9287 64.6348Z" fill="#5787D9"/>
<path fill-rule="evenodd" clip-rule="evenodd" d="M15.5801 64.6335C15.7458 64.965 15.9115 64.6335 16.0773 64.6335C16.0773 64.4678 15.9115 64.7992 15.9115 64.4678C15.9115 64.6335 15.7458 64.4678 15.5801 64.6335Z" fill="#5787D9"/>
<path fill-rule="evenodd" clip-rule="evenodd" d="M25.3584 68.1137C25.3584 68.2794 25.5241 68.2794 25.5241 68.2794C25.5241 68.1137 25.5241 67.948 25.5241 67.7822C25.3584 67.7822 25.5241 68.1137 25.3584 68.1137Z" fill="#5787D9"/>
<path fill-rule="evenodd" clip-rule="evenodd" d="M28.1748 67.7826C28.1748 67.9483 28.3405 67.7826 28.5063 67.7826C28.3405 67.4511 28.3405 67.7826 28.1748 67.7826Z" fill="#5787D9"/>
<path fill-rule="evenodd" clip-rule="evenodd" d="M28.8379 71.5944C28.8379 71.9259 29.1694 71.5944 29.1694 71.4287C29.0036 71.4287 29.0036 71.5944 28.8379 71.5944Z" fill="#5787D9"/>
<path fill-rule="evenodd" clip-rule="evenodd" d="M25.1934 78.0581C25.3591 78.2238 25.5248 78.2238 25.5248 78.2238C25.5248 78.0581 25.3591 78.0581 25.1934 78.0581Z" fill="#5787D9"/>
<path fill-rule="evenodd" clip-rule="evenodd" d="M25.8535 78.0586C25.8535 78.39 26.185 78.0586 26.3507 78.2243C26.3507 77.8928 25.8535 77.8928 25.8535 78.0586Z" fill="#5787D9"/>
<path fill-rule="evenodd" clip-rule="evenodd" d="M26.8506 77.2297C26.8506 77.5612 27.182 77.3954 27.3478 77.3954C27.3478 77.2297 27.0163 77.2297 27.182 77.064C27.0163 76.8983 26.8506 77.2297 26.8506 77.2297Z" fill="#5787D9"/>
<path fill-rule="evenodd" clip-rule="evenodd" d="M27.6789 77.561C27.6789 77.3952 27.6789 77.3952 27.6789 77.2295C27.6789 77.2295 27.5132 77.2295 27.5132 77.561C27.3474 77.3952 27.3474 77.3952 27.6789 77.561C27.5132 77.3952 27.5132 77.561 27.6789 77.561Z" fill="#5787D9"/>
<path fill-rule="evenodd" clip-rule="evenodd" d="M27.5107 77.5615C27.6765 77.7272 27.6765 77.23 28.0079 77.5615C27.8422 77.23 27.6765 77.3958 27.5107 77.5615Z" fill="#5787D9"/>
<path fill-rule="evenodd" clip-rule="evenodd" d="M18.0654 65.2974C18.0654 65.6288 18.2312 65.4631 18.2312 65.2974C18.2312 65.1316 18.2312 65.4631 18.0654 65.2974Z" fill="#5787D9"/>
<path fill-rule="evenodd" clip-rule="evenodd" d="M22.873 67.6172C22.873 67.9486 23.2045 67.9486 23.0388 67.6172C22.873 67.6172 22.873 67.6172 22.873 67.6172Z" fill="#5787D9"/>
<path fill-rule="evenodd" clip-rule="evenodd" d="M23.7012 67.6172C23.7012 67.7829 23.8669 67.7829 24.0326 67.7829C23.8669 67.4515 23.7012 67.7829 23.7012 67.6172Z" fill="#5787D9"/>
<path fill-rule="evenodd" clip-rule="evenodd" d="M24.3634 68.4458C24.1977 68.6115 24.6949 68.7773 24.5292 68.4458C24.3634 68.4458 24.3634 68.7773 24.3634 68.4458Z" fill="#5787D9"/>
<path fill-rule="evenodd" clip-rule="evenodd" d="M18.8945 67.2859C18.8945 67.4516 19.226 67.1201 19.3917 67.1201C19.0603 66.9544 18.8945 67.2859 18.8945 67.2859Z" fill="#5787D9"/>
<path fill-rule="evenodd" clip-rule="evenodd" d="M21.0508 63.3084C21.3822 63.4742 21.548 62.977 21.7137 62.8113C21.548 62.4798 21.3822 63.1427 21.0508 63.3084Z" fill="#5787D9"/>
<path fill-rule="evenodd" clip-rule="evenodd" d="M21.5459 66.9543C21.7116 67.4515 21.7116 66.6228 21.8774 67.12C21.8774 67.12 21.8774 66.9543 21.8774 66.7886C21.7116 66.7886 21.7116 66.7886 21.5459 66.9543Z" fill="#5787D9"/>
<path fill-rule="evenodd" clip-rule="evenodd" d="M21.3809 64.1371C21.3809 64.3029 21.5466 64.1371 21.5466 64.1371C21.5466 63.9714 21.5466 63.9714 21.5466 63.8057C21.3809 63.8057 21.5466 64.1371 21.3809 64.1371Z" fill="#5787D9"/>
<path fill-rule="evenodd" clip-rule="evenodd" d="M21.7109 64.6348C21.7109 64.8005 21.8767 64.9662 21.8767 64.8005C21.8767 64.6348 21.8767 64.6348 21.7109 64.6348Z" fill="#5787D9"/>
<path fill-rule="evenodd" clip-rule="evenodd" d="M22.0439 64.1369C22.2097 64.3027 22.5411 64.4684 22.5411 64.3027C22.3754 64.1369 22.3754 64.3027 22.3754 63.9712C22.3754 64.1369 22.2097 64.1369 22.0439 64.1369Z" fill="#5787D9"/>
<path fill-rule="evenodd" clip-rule="evenodd" d="M23.2031 63.8049C23.2031 64.3021 24.0318 64.1364 23.866 63.6392V63.8049C23.7003 63.6392 23.5346 63.9706 23.2031 63.8049Z" fill="#5787D9"/>
<path fill-rule="evenodd" clip-rule="evenodd" d="M21.8789 66.9543C21.8789 67.12 21.8789 67.12 22.0446 67.2858C22.2104 67.2858 22.0446 66.7886 22.2104 66.9543C22.3761 66.7886 22.0446 66.7886 22.0446 66.7886C22.0446 66.7886 22.0446 66.9543 21.8789 66.9543Z" fill="#5787D9"/>
<path fill-rule="evenodd" clip-rule="evenodd" d="M21.7109 63.9714C21.8767 64.3029 22.0424 63.9714 22.0424 63.8057V63.64C22.2081 63.8057 22.2081 63.4742 22.2081 63.3085C22.2081 63.3085 22.2081 63.4742 22.3739 63.4742C22.5396 63.4742 22.5396 63.3085 22.5396 63.1428C22.3739 63.3085 22.3739 63.3085 22.0424 63.1428V63.3085C21.8767 63.3085 21.8767 63.3085 21.8767 63.4742C21.8767 63.3085 21.8767 63.1428 21.7109 63.1428C21.7109 62.977 21.8767 63.1428 21.8767 62.9771C21.8767 63.1428 21.7109 63.1428 21.7109 63.3085C21.8767 63.3085 21.8767 63.4742 21.8767 63.8057C21.8767 63.64 22.0424 63.8057 22.0424 63.8057C22.0424 63.9714 21.8767 63.9714 21.7109 63.9714Z" fill="#5787D9"/>
<path fill-rule="evenodd" clip-rule="evenodd" d="M22.209 67.12C22.3747 66.9543 22.3747 66.9543 22.3747 66.9543C22.3747 66.7886 22.3747 66.7886 22.3747 66.7886C22.5404 66.7886 22.209 66.9543 22.209 67.12Z" fill="#5787D9"/>
<path fill-rule="evenodd" clip-rule="evenodd" d="M22.374 63.6391C22.5398 63.9706 22.5398 63.4734 22.5398 63.3077C22.5398 63.3077 22.5398 63.4734 22.7055 63.4734C22.7055 62.8105 22.5398 63.4734 22.374 63.6391Z" fill="#5787D9"/>
<path fill-rule="evenodd" clip-rule="evenodd" d="M22.873 72.9203C23.2045 73.086 23.3702 72.5888 23.536 72.4231C23.3702 72.2574 23.2045 72.9203 22.873 72.9203Z" fill="#5787D9"/>
<path fill-rule="evenodd" clip-rule="evenodd" d="M23.3682 76.5666C23.5339 77.0638 23.5339 76.2351 23.6996 76.7323C23.6996 76.7323 23.6996 76.5666 23.6996 76.4009C23.5339 76.5666 23.5339 76.5666 23.3682 76.5666Z" fill="#5787D9"/>
<path fill-rule="evenodd" clip-rule="evenodd" d="M23.2031 73.9145C23.2031 74.0802 23.3689 73.9145 23.3689 73.9145C23.3689 73.7487 23.3689 73.7487 23.3689 73.583C23.3689 73.583 23.3689 73.7487 23.2031 73.9145Z" fill="#5787D9"/>
<path fill-rule="evenodd" clip-rule="evenodd" d="M23.5361 74.4116C23.5361 74.5774 23.7019 74.7431 23.7019 74.5773C23.7019 74.4116 23.7019 74.4116 23.5361 74.4116Z" fill="#5787D9"/>
<path fill-rule="evenodd" clip-rule="evenodd" d="M23.8662 73.7487C24.0319 73.9145 24.3634 74.0802 24.3634 73.9145C24.1977 73.7487 24.1977 73.9145 24.1977 73.583C24.3634 73.7487 24.0319 73.7487 23.8662 73.7487Z" fill="#5787D9"/>
<path fill-rule="evenodd" clip-rule="evenodd" d="M25.1934 73.5837C25.1934 74.0809 26.022 73.9152 25.8563 73.418V73.5837C25.5248 73.418 25.3591 73.7494 25.1934 73.5837Z" fill="#5787D9"/>
<path fill-rule="evenodd" clip-rule="evenodd" d="M27.5107 73.9143C27.5107 74.0801 27.6765 73.9143 27.8422 73.9143C27.6765 73.7486 27.6765 73.7486 27.5107 73.9143Z" fill="#5787D9"/>
<path fill-rule="evenodd" clip-rule="evenodd" d="M23.8662 76.5666C23.8662 76.7323 23.8662 76.7323 24.0319 76.8981C24.1977 76.8981 24.0319 76.4009 24.1977 76.5666C24.3634 76.4009 24.0319 76.4009 24.0319 76.4009C23.8662 76.4009 23.8662 76.5666 23.8662 76.5666Z" fill="#5787D9"/>
<path fill-rule="evenodd" clip-rule="evenodd" d="M23.5361 73.7488C23.7019 74.0802 23.8676 73.7488 23.8676 73.583V73.4173C24.0333 73.583 24.0333 73.2516 24.0333 73.0859C24.0333 73.0859 24.0333 73.2516 24.1991 73.2516C24.3648 73.2516 24.3648 73.0859 24.3648 72.9201C24.1991 73.0859 24.1991 73.0859 23.8676 72.9201V73.0859C23.7019 73.0859 23.7019 73.0859 23.7019 73.2516C23.7019 73.0859 23.7019 72.9201 23.5361 72.9201C23.5361 72.7544 23.7019 72.9201 23.7019 72.7544C23.7019 72.9201 23.5361 72.9201 23.5361 73.0859C23.7019 73.0859 23.7019 73.2516 23.7019 73.583C23.7019 73.4173 23.8676 73.583 23.8676 73.583C23.8676 73.7488 23.7019 73.583 23.5361 73.7488Z" fill="#5787D9"/>
<path fill-rule="evenodd" clip-rule="evenodd" d="M24.1978 76.8974C24.3635 76.7316 24.3635 76.7316 24.3635 76.7316C24.3635 76.5659 24.3635 76.5659 24.3635 76.5659C24.3635 76.5659 24.032 76.5659 24.1978 76.8974Z" fill="#5787D9"/>
<path fill-rule="evenodd" clip-rule="evenodd" d="M24.3652 73.2525C24.531 73.584 24.531 73.0868 24.531 72.921C24.531 72.921 24.531 73.0868 24.6967 73.0868C24.531 72.5896 24.3652 73.2525 24.3652 73.2525Z" fill="#5787D9"/>
<path fill-rule="evenodd" clip-rule="evenodd" d="M19.7236 75.2402C19.8894 75.2402 20.0551 75.0744 20.0551 74.9087C20.0551 74.9087 19.8894 75.2402 19.7236 75.2402Z" fill="#5787D9"/>
<path fill-rule="evenodd" clip-rule="evenodd" d="M22.5391 79.5497C22.5391 79.7155 22.7048 79.5497 22.7048 79.5497C22.7048 79.384 22.7048 79.384 22.7048 79.2183C22.7048 79.384 22.7048 79.5497 22.5391 79.5497Z" fill="#5787D9"/>
<path fill-rule="evenodd" clip-rule="evenodd" d="M22.873 80.2127C22.873 80.3784 23.0388 80.5441 23.0388 80.3784C23.0388 80.2127 23.0388 80.047 22.873 80.2127Z" fill="#5787D9"/>
<path fill-rule="evenodd" clip-rule="evenodd" d="M23.2031 79.5495C23.3689 79.7152 23.7003 79.881 23.7003 79.7152C23.5346 79.5495 23.5346 79.7152 23.5346 79.3838C23.7003 79.5495 23.3689 79.5495 23.2031 79.5495Z" fill="#5787D9"/>
<path fill-rule="evenodd" clip-rule="evenodd" d="M22.0439 80.7097C22.0439 81.2069 22.8726 81.0411 22.7069 80.5439V80.7097C22.3754 80.5439 22.2097 80.8754 22.0439 80.7097Z" fill="#5787D9"/>
<path fill-rule="evenodd" clip-rule="evenodd" d="M26.8506 79.5503C26.8506 79.716 27.0163 79.5503 27.182 79.5503C27.0163 79.5503 27.0163 79.5503 26.8506 79.5503Z" fill="#5787D9"/>
<path fill-rule="evenodd" clip-rule="evenodd" d="M20.0551 75.5716C20.0551 75.7373 20.2208 75.5716 20.2208 75.5716C20.2208 75.5716 20.2208 75.4059 20.0551 75.5716C20.2208 75.5716 20.2208 75.4059 20.2208 75.2402C20.2208 75.2402 20.3866 75.2401 20.2208 75.0744C20.0551 75.0744 20.0551 75.0744 20.0551 75.0744C20.0551 75.0744 20.0551 75.0744 20.0551 75.2402C20.0551 75.2402 20.0551 75.2402 19.8894 75.2402C19.8894 75.0744 19.8894 75.0744 19.8894 75.0744C19.8894 74.9087 20.0551 75.0744 19.8894 74.9087C19.8894 74.9087 19.8894 74.9087 19.7236 75.0744C20.0551 75.2401 20.0551 75.4059 20.0551 75.5716C20.0551 75.4059 20.0551 75.4059 20.0551 75.5716C20.2208 75.5716 20.0551 75.5716 20.0551 75.5716Z" fill="#5787D9"/>
<path fill-rule="evenodd" clip-rule="evenodd" d="M20.3867 75.407C20.5524 75.5727 20.5524 75.2412 20.3867 75.407C20.5524 75.2412 20.5524 75.407 20.5524 75.2412C20.5524 75.0755 20.5524 75.407 20.3867 75.407Z" fill="#5787D9"/>
<path fill-rule="evenodd" clip-rule="evenodd" d="M13.426 71.7607C13.426 71.7607 13.0945 71.7607 13.2603 71.9265C13.426 71.7607 13.5917 72.2579 13.426 72.4237C13.426 72.4237 13.5917 72.4237 13.5917 72.5894C13.7575 72.4237 13.5917 72.0922 13.426 71.7607Z" fill="#5787D9"/>
<path fill-rule="evenodd" clip-rule="evenodd" d="M14.2553 72.423C14.2553 72.2572 14.2553 71.9258 14.2553 71.9258C14.0896 72.0915 14.2553 72.2572 14.2553 72.423C14.2553 72.423 14.2553 72.5887 14.2553 72.423C14.5868 72.423 14.5868 72.5887 14.9182 72.423C14.9182 72.2572 14.7525 72.2572 14.7525 72.423C14.7525 72.0915 14.5868 72.2572 14.421 71.9258C14.421 72.0915 14.421 72.2572 14.421 72.2572C14.421 72.423 14.421 72.423 14.2553 72.423Z" fill="#5787D9"/>
<path fill-rule="evenodd" clip-rule="evenodd" d="M16.5735 75.7373C16.4077 75.4058 16.7392 75.4058 16.7392 75.4058C16.5735 75.0743 16.242 75.7373 16.5735 75.7373Z" fill="#5787D9"/>
<path fill-rule="evenodd" clip-rule="evenodd" d="M17.4022 70.7651C17.2365 70.7651 16.9051 70.9309 17.4022 70.7651C17.2365 70.9309 17.2365 70.9309 17.4022 70.7651Z" fill="#5787D9"/>
<path fill-rule="evenodd" clip-rule="evenodd" d="M17.7338 70.9311C17.5681 70.9311 17.5681 70.7653 17.4023 70.9311C17.4023 71.0968 17.4023 71.0968 17.4023 71.2625C17.4023 71.2625 17.5681 71.2625 17.7338 70.9311C17.5681 71.0968 17.5681 71.0968 17.5681 71.0968H17.7338C17.7338 71.0968 17.5681 71.0968 17.7338 70.9311Z" fill="#5787D9"/>
<path fill-rule="evenodd" clip-rule="evenodd" d="M17.5681 70.5996C17.7338 70.7653 18.231 70.9311 18.3967 70.9311C18.3967 70.9311 18.3967 70.9311 18.3967 71.0968V70.9311C18.5625 70.9311 18.5625 70.9311 18.5625 70.9311C18.5625 70.9311 18.5625 70.9311 18.5625 71.0968C19.0596 70.9311 19.5568 71.0968 19.8883 71.0968C19.7226 70.9311 19.8883 70.9311 19.8883 70.7653C19.8883 70.7653 19.8883 70.7653 20.054 70.7653C20.054 70.9311 19.8883 70.7653 20.054 70.9311C20.2198 70.7653 20.2198 70.9311 20.2198 70.5996C20.2198 70.4339 20.054 70.7653 20.054 70.5996C19.2254 70.7653 18.8939 70.7653 17.8995 70.9311C17.8995 70.9311 17.8995 70.7653 17.7338 70.7653C17.7338 70.7653 17.5681 70.7653 17.5681 70.9311C17.5681 70.9311 17.4023 70.9311 17.4023 70.7653C17.7338 70.5996 17.5681 70.7653 17.5681 70.5996Z" fill="#5787D9"/>
<path fill-rule="evenodd" clip-rule="evenodd" d="M15.0811 71.4287C15.0811 71.5945 15.0811 71.4287 15.0811 71.4287C15.2468 71.5945 15.2468 71.5945 15.0811 71.5945C15.2468 71.7602 15.4125 71.5945 15.5782 71.5945C15.4125 71.4288 15.9097 71.263 16.0754 71.4287V71.263L16.2412 71.4287C16.2412 71.4287 16.2412 71.4288 16.2412 71.263C16.4069 71.263 16.4069 71.0973 16.4069 70.9316C16.4069 71.0973 16.5726 70.9316 16.5726 70.9316C16.4069 70.9316 16.5726 70.7658 16.7384 70.7658C16.5726 70.7658 16.5726 70.6001 16.4069 70.6001C16.4069 70.6001 16.4069 70.6001 16.4069 70.7658C16.4069 70.9316 16.2412 70.9316 16.2412 70.9316V71.0973C16.2412 70.9316 16.0754 71.0973 15.9097 70.9316C15.9097 70.9316 15.9097 70.9316 15.744 71.0973C15.744 71.263 15.744 71.0973 15.9097 71.0973C15.9097 71.0973 15.9097 71.0973 15.9097 71.263C15.744 71.4288 15.2468 71.4287 15.0811 71.4287Z" fill="#5787D9"/>
<path fill-rule="evenodd" clip-rule="evenodd" d="M15.0817 70.1035C15.0817 70.2692 14.916 70.1035 14.916 70.2692C14.916 70.2692 15.0817 70.2692 15.0817 70.1035C15.2475 70.2692 15.0817 70.1035 15.0817 70.1035Z" fill="#5787D9"/>
<path fill-rule="evenodd" clip-rule="evenodd" d="M23.0369 67.1193C22.7055 66.9536 22.7055 67.1193 22.374 66.9536C22.374 67.1193 22.374 67.1193 22.5398 67.1193V67.2851C22.7055 66.9536 23.0369 67.1193 23.2027 67.2851C23.2027 67.2851 22.7055 67.1193 23.0369 67.1193Z" fill="#5787D9"/>
<path fill-rule="evenodd" clip-rule="evenodd" d="M23.7002 67.12C23.7002 67.2858 23.8659 66.9543 23.8659 66.7886L23.7002 66.9543C23.5345 67.12 23.8659 67.12 23.7002 67.12Z" fill="#5787D9"/>
<path fill-rule="evenodd" clip-rule="evenodd" d="M23.2031 73.2515C23.3689 73.4172 23.3689 73.4172 23.7003 73.5829V73.4172C23.7003 73.2515 23.5346 73.4172 23.5346 73.2515C23.5346 73.2515 23.5346 73.2515 23.2031 73.2515Z" fill="#5787D9"/>
<path fill-rule="evenodd" clip-rule="evenodd" d="M17.5674 77.2302C17.7331 77.3959 17.8988 77.3959 17.7331 77.0645C17.5674 77.0645 17.7331 77.2302 17.5674 77.2302Z" fill="#5787D9"/>
<path fill-rule="evenodd" clip-rule="evenodd" d="M22.708 63.3084C23.0395 63.4742 23.2052 62.977 23.3709 62.8113C23.2052 62.4798 23.0395 63.1427 22.708 63.3084Z" fill="#5787D9"/>
<path fill-rule="evenodd" clip-rule="evenodd" d="M23.3682 66.9543C23.5339 67.4515 23.5339 66.6228 23.6996 67.12C23.6996 67.12 23.6996 66.9543 23.6996 66.7886C23.3682 66.7886 23.3682 66.7886 23.3682 66.9543Z" fill="#5787D9"/>
<path fill-rule="evenodd" clip-rule="evenodd" d="M23.0381 64.1371C23.0381 64.3029 23.2038 64.1371 23.2038 64.1371C23.2038 63.9714 23.2038 63.9714 23.2038 63.8057C23.2038 63.8057 23.2038 64.1371 23.0381 64.1371Z" fill="#5787D9"/>
<path fill-rule="evenodd" clip-rule="evenodd" d="M23.3682 64.6348C23.3682 64.8005 23.5339 64.9662 23.5339 64.8005C23.6996 64.6348 23.5339 64.6348 23.3682 64.6348Z" fill="#5787D9"/>
<path fill-rule="evenodd" clip-rule="evenodd" d="M23.8662 64.1369C24.0319 64.3027 24.3634 64.4684 24.3634 64.3027C24.1977 64.1369 24.1977 64.3027 24.1977 63.9712C24.1977 63.9712 24.0319 64.1369 23.8662 64.1369Z" fill="#5787D9"/>
<path fill-rule="evenodd" clip-rule="evenodd" d="M13.4238 68.7771C13.4238 69.2742 14.2525 69.1085 14.0867 68.6113V68.7771C13.921 68.6113 13.5896 68.9428 13.4238 68.7771Z" fill="#5787D9"/>
<path fill-rule="evenodd" clip-rule="evenodd" d="M15.7451 69.1092C15.7451 69.2749 15.9108 69.1092 16.0766 69.1092C16.0766 68.9434 15.9108 68.9434 15.7451 69.1092Z" fill="#5787D9"/>
<path fill-rule="evenodd" clip-rule="evenodd" d="M23.7012 66.9543C23.7012 67.12 23.7012 67.12 23.8669 67.2858C24.0326 67.2858 23.8669 66.7886 24.0326 66.9543C24.1984 66.7886 23.8669 66.7886 23.8669 66.7886C23.8669 66.7886 23.8669 66.9543 23.7012 66.9543Z" fill="#5787D9"/>
<path fill-rule="evenodd" clip-rule="evenodd" d="M23.3682 63.9714C23.5339 64.3029 23.6996 63.9714 23.6996 63.8057V63.64C23.8654 63.8057 23.8654 63.4742 23.8654 63.3085C23.8654 63.3085 23.8654 63.4742 24.0311 63.4742C24.1968 63.4742 24.1968 63.3085 24.1968 63.1428C24.0311 63.3085 24.0311 63.3085 23.6996 63.1428V63.3085C23.5339 63.3085 23.5339 63.3085 23.5339 63.4742C23.5339 63.3085 23.5339 63.1428 23.3682 63.1428C23.3682 62.977 23.5339 63.1428 23.5339 62.9771C23.5339 63.1428 23.3682 63.1428 23.3682 63.3085C23.5339 63.3085 23.5339 63.4742 23.5339 63.8057C23.5339 63.64 23.6996 63.8057 23.6996 63.8057C23.6996 63.9714 23.5339 63.9714 23.3682 63.9714Z" fill="#5787D9"/>
<path fill-rule="evenodd" clip-rule="evenodd" d="M24.0312 67.12C24.197 66.9543 24.197 66.9543 24.197 66.9543C24.197 66.7886 24.197 66.7886 24.197 66.7886C24.197 66.7886 24.0312 66.9543 24.0312 67.12Z" fill="#5787D9"/>
<path fill-rule="evenodd" clip-rule="evenodd" d="M24.1963 63.6391C24.362 63.9706 24.362 63.4734 24.362 63.3077C24.362 63.3077 24.362 63.4734 24.5277 63.4734C24.362 62.8105 24.362 63.4734 24.1963 63.6391Z" fill="#5787D9"/>
<path fill-rule="evenodd" clip-rule="evenodd" d="M23.202 73.2517C22.8705 73.0859 22.8705 73.2517 22.5391 73.0859C22.5391 73.2517 22.5391 73.2517 22.7048 73.2517V73.4174C22.8705 73.0859 23.202 73.2517 23.3677 73.4174C23.3677 73.5831 23.0363 73.4174 23.202 73.2517Z" fill="#5787D9"/>
<path fill-rule="evenodd" clip-rule="evenodd" d="M23.8662 73.4174C23.8662 73.5831 24.0319 73.2517 24.0319 73.0859L23.8662 73.2517C23.8662 73.2517 24.0319 73.4174 23.8662 73.4174Z" fill="#5787D9"/>
<path fill-rule="evenodd" clip-rule="evenodd" d="M24.1963 68.943C24.1963 69.1087 24.1963 69.1087 24.1963 69.1087C24.1963 68.7773 24.6935 69.1087 24.5277 68.4458C24.362 68.4458 24.5277 68.6115 24.5277 68.6115C24.362 68.943 24.1963 68.943 24.1963 68.943Z" fill="#5787D9"/>
<path fill-rule="evenodd" clip-rule="evenodd" d="M22.5411 72.7552C22.7069 72.7552 22.5411 72.7552 22.5411 72.7552C22.5411 72.5895 22.5411 72.4237 22.5411 72.5895V72.4237C22.3754 72.4237 22.3754 72.4237 22.3754 72.4237V72.258C22.3754 72.0923 22.2097 72.258 22.2097 72.0923V72.258C22.2097 72.258 22.2097 72.4237 22.0439 72.4237C22.0439 72.4237 22.0439 72.4237 22.0439 72.5895C22.3754 72.7552 22.3754 72.5895 22.5411 72.7552Z" fill="#5787D9"/>
<path fill-rule="evenodd" clip-rule="evenodd" d="M16.4082 68.7773C16.4082 68.9431 16.4082 68.9431 16.4082 68.7773C16.4082 68.9431 16.5739 68.7773 16.4082 68.7773C16.5739 68.6116 16.4082 68.9431 16.4082 68.7773Z" fill="#5787D9"/>
<path fill-rule="evenodd" clip-rule="evenodd" d="M16.7383 69.6052C16.7383 69.6052 16.7383 69.7709 16.7383 69.6052C16.7383 69.6052 17.0697 69.7709 17.0697 69.6052V69.7709C17.0697 69.7709 17.4012 69.6052 17.5669 69.4395C17.5669 69.6052 17.7327 69.2737 17.7327 69.6052V69.4395C17.8984 69.6052 17.8984 69.2737 18.0641 69.4395C18.0641 69.4395 18.0641 69.108 18.0641 69.2737C18.0641 69.108 17.8984 69.2737 17.8984 69.4395C17.7327 69.4395 17.7327 69.4395 17.7327 69.6052C17.7327 69.6052 17.7327 69.6052 17.7327 69.4395C17.5669 69.4395 17.5669 69.6052 17.5669 69.4395C17.7327 69.7709 17.2355 69.4395 17.2355 69.7709C17.0697 69.6052 16.904 69.6052 16.7383 69.6052Z" fill="#5787D9"/>
<path fill-rule="evenodd" clip-rule="evenodd" d="M17.403 72.091C17.5688 72.2567 17.5688 72.2567 17.403 72.091C17.5688 72.2567 17.5688 72.2567 17.5688 72.2567C17.7345 72.2567 17.7345 72.2567 17.9002 72.4224C17.9002 72.2567 18.2317 72.2567 18.2317 71.9253C18.2317 71.9253 18.2317 71.9253 18.3974 71.9253C18.3974 71.7595 18.3974 71.7595 18.5631 71.7595C18.5631 71.4281 18.8946 71.4281 18.8946 71.2623H18.7289C18.3974 71.2623 17.9002 71.7595 17.5688 71.2623C17.5688 71.2623 17.7345 71.4281 17.9002 71.2623C17.7345 71.0966 17.7345 71.0966 17.5688 70.9309C17.5688 70.7651 17.7345 70.9309 17.7345 70.7651C17.7345 70.7651 17.7345 70.7651 17.5688 70.7651C17.7345 70.9309 17.403 70.9309 17.403 70.9309C17.403 70.9309 17.403 70.9309 17.403 71.0966C17.403 71.0966 17.5688 70.9309 17.5688 71.0966C17.5688 71.4281 17.403 71.2623 17.2373 71.2623C17.403 71.2623 17.5688 71.5938 17.7345 71.7595C17.7345 71.7595 17.9002 71.7595 17.9002 71.9253C17.9002 71.9253 17.9002 71.7595 18.066 71.7595C18.066 71.7595 18.066 71.9253 18.2317 71.9253C18.2317 71.9253 18.2317 71.9252 18.2317 72.091C18.2317 72.2567 17.9002 72.091 18.066 72.2567C18.066 72.091 18.2317 72.2567 18.066 72.091C18.066 72.091 17.9002 72.091 18.066 72.2567C17.5688 72.2567 17.5688 72.091 17.403 72.091Z" fill="#5787D9"/>
<path fill-rule="evenodd" clip-rule="evenodd" d="M16.9072 69.2736C16.9072 69.4394 16.9072 69.2736 16.9072 69.2736C17.073 69.1079 17.073 69.1079 16.9072 69.1079C16.9072 69.2736 17.073 69.2736 16.9072 69.2736Z" fill="#5787D9"/>
<path fill-rule="evenodd" clip-rule="evenodd" d="M17.7354 69.2736C17.7354 69.2736 17.9011 69.2736 17.9011 69.1079C18.0668 69.2736 17.7354 69.1079 17.7354 69.2736Z" fill="#5787D9"/>
<path fill-rule="evenodd" clip-rule="evenodd" d="M18.2319 70.7663C18.2319 70.4349 18.0661 70.7663 17.9004 70.9321C18.0661 70.7663 18.2319 70.7663 18.2319 70.7663Z" fill="#5787D9"/>
<path fill-rule="evenodd" clip-rule="evenodd" d="M21.2145 71.5947C21.2145 71.429 21.0488 71.5947 21.0488 71.429C21.0488 71.5947 20.8831 71.5947 20.8831 71.7605C20.7173 71.7605 20.5516 71.5947 20.5516 71.2633C20.2201 70.9318 19.8887 71.2633 19.8887 71.5947C19.8887 72.2577 20.0544 72.5891 20.2201 72.5891C20.5516 72.7548 20.7173 71.9262 21.0488 72.2577C21.0488 72.2577 21.3802 72.0919 21.546 71.9262C21.546 71.7605 21.546 71.7605 21.546 71.5947C21.546 71.5947 21.3802 71.7605 21.2145 71.5947C21.3802 71.429 21.2145 71.5947 21.2145 71.5947Z" fill="#5787D9"/>
</svg>
