<svg width="80" height="46" viewBox="0 0 80 46" fill="none" xmlns="http://www.w3.org/2000/svg">
<path d="M27.0571 3.79727C25.0952 3.21669 23.0231 3.09657 21.0011 3.45693C18.9791 3.81729 17.0772 4.63811 15.4355 5.86934C13.7939 7.10057 12.4625 8.68215 11.5416 10.514C10.6207 12.3458 10.1402 14.3678 10.1402 16.4199C10.1402 17.1706 10.1402 18.0916 10.1903 19.1326V40.4439C10.0902 41.7252 9.50959 42.9264 8.56865 43.8073C7.62771 44.6881 6.37646 45.1686 5.09518 45.1686C3.8139 45.1686 2.56264 44.6781 1.6217 43.8073C0.680759 42.9264 0.100184 41.7352 8.34358e-05 40.4439V16.57C-0.00992657 13.4269 0.880962 10.3538 2.56264 7.70117C4.24432 5.04852 6.63671 2.9264 9.47955 1.58506C12.3224 0.243718 15.4856 -0.256783 18.5987 0.123597C21.7118 0.513987 24.6547 1.78526 27.0772 3.77725V3.79727H27.0571Z" fill="#1E5BEE"/>
<path d="M33.0928 16.1697V16.5701C33.0928 16.7402 33.0828 16.9104 33.0628 17.0806C32.8226 21.3048 30.9807 25.2788 27.9077 28.1917C24.8346 31.1046 20.7705 32.7262 16.5363 32.7262C15.8356 32.7762 15.1249 32.6862 14.4642 32.4559C13.8036 32.2257 13.1929 31.8553 12.6724 31.3748C12.1519 30.8944 11.7415 30.3138 11.4612 29.6731C11.1809 29.0225 11.0308 28.3318 11.0308 27.6211C11.0308 26.9104 11.1809 26.2197 11.4612 25.569C11.7415 24.9184 12.1519 24.3378 12.6724 23.8673C13.1929 23.3869 13.8036 23.0265 14.4642 22.7863C15.1249 22.556 15.8356 22.4659 16.5363 22.516C18.1879 22.516 19.7695 21.8754 20.9507 20.7242C22.1319 19.5731 22.8226 18.0115 22.8826 16.3699C22.8426 15.0686 22.4022 13.8073 21.6214 12.7663C20.8406 11.7252 19.7595 10.9444 18.5283 10.534C17.297 10.1236 15.9657 10.1036 14.7145 10.474C13.4632 10.8443 12.3621 11.5951 11.5513 12.6161C10.6604 13.7372 10.1799 15.1286 10.1799 16.56V19.1226C10.1399 18.0816 10.1299 17.1606 10.1299 16.4099C10.1299 14.3578 10.6104 12.3358 11.5313 10.504C12.4522 8.67216 13.7835 7.08057 15.4252 5.85935C17.0668 4.63813 18.9787 3.8073 20.9907 3.44694C23.0128 3.08657 25.0848 3.20669 27.0468 3.78727C28.8086 5.23873 30.26 7.04053 31.291 9.08257C32.3221 11.1246 32.9227 13.3468 33.0528 15.6291C33.0828 15.8093 33.0928 15.9895 33.0928 16.1697Z" fill="#1E5BEE"/>
<path d="M27.0575 3.79716C15.0055 2.1355 11.6521 12.3257 11.562 12.626C10.6712 13.7471 10.1907 15.1385 10.1907 16.5699V19.1325C10.1506 18.0914 10.1406 17.1705 10.1406 16.4198C10.1406 14.3677 10.6211 12.3457 11.542 10.5139C12.4629 8.68205 13.7943 7.09045 15.4359 5.86923C17.0775 4.64801 18.9895 3.81718 21.0015 3.45682C23.0235 3.09646 25.0956 3.20657 27.0575 3.79716Z" fill="#1E5BEE"/>
<path d="M40.1498 31.2547C39.329 31.2547 38.5182 31.0145 37.8275 30.554C37.1368 30.0935 36.6063 29.4429 36.286 28.6821C35.9657 27.9214 35.8856 27.0805 36.0457 26.2697C36.2059 25.4589 36.6063 24.7182 37.1869 24.1376C37.7675 23.557 38.5182 23.1566 39.319 22.9964C40.1298 22.8363 40.9707 22.9164 41.7314 23.2367C42.4922 23.557 43.1428 24.0875 43.6033 24.7782C44.0638 25.4689 44.304 26.2697 44.304 27.1005C44.304 28.2116 43.8636 29.2627 43.0828 30.0535C42.312 30.8042 41.2509 31.2447 40.1498 31.2547ZM40.1498 18.9124C38.5382 18.9124 36.9567 19.3928 35.6153 20.2837C34.274 21.1846 33.2229 22.4559 32.6123 23.9474C32.0017 25.4389 31.8315 27.0805 32.1518 28.6621C32.4622 30.2437 33.2429 31.7051 34.3841 32.8463C35.5252 33.9874 36.9767 34.7682 38.5683 35.0785C40.1498 35.3888 41.7915 35.2287 43.283 34.618C44.7745 33.9974 46.0457 32.9564 46.9466 31.615C47.8475 30.2737 48.318 28.6921 48.318 27.0805C48.318 24.9184 47.4571 22.8363 45.9256 21.3148C44.3941 19.7732 42.312 18.9124 40.1498 18.9124Z" fill="#1E5BEE"/>
<path d="M71.8315 31.2547C71.0107 31.2547 70.1999 31.0044 69.5192 30.544C68.8385 30.0835 68.2979 29.4329 67.9876 28.6721C67.6773 27.9113 67.5973 27.0705 67.7574 26.2597C67.9176 25.4489 68.318 24.7081 68.8986 24.1276C69.4791 23.547 70.2299 23.1466 71.0307 22.9864C71.8415 22.8263 72.6823 22.9063 73.4431 23.2267C74.2038 23.547 74.8545 24.0775 75.315 24.7682C75.7754 25.4589 76.0157 26.2597 76.0157 27.0805C76.0157 27.6311 75.9055 28.1716 75.6953 28.6821C75.4851 29.1926 75.1748 29.6531 74.7844 30.0335C74.394 30.4239 73.9336 30.7242 73.4231 30.9344C72.9226 31.1446 72.382 31.2547 71.8315 31.2547ZM71.8315 18.9124C70.2199 18.9124 68.6383 19.3928 67.297 20.2837C65.9556 21.1846 64.9046 22.4559 64.294 23.9474C63.6833 25.4389 63.5132 27.0805 63.8335 28.6621C64.1438 30.2437 64.9246 31.7051 66.0657 32.8463C67.2069 33.9874 68.6583 34.7682 70.2499 35.0785C71.8415 35.3888 73.4731 35.2287 74.9646 34.618C76.4561 33.9974 77.7274 32.9564 78.6283 31.615C79.5292 30.2737 79.9996 28.6921 79.9996 27.0805C79.9996 24.9184 79.1388 22.8363 77.6073 21.3148C76.0757 19.7732 73.9936 18.9124 71.8315 18.9124Z" fill="#1E5BEE"/>
<path d="M57.1477 18.9924C55.2958 18.7221 53.4039 19.1025 51.8023 20.0735V12.3157C51.8023 12.0555 51.7523 11.7952 51.6522 11.555C51.5521 11.3147 51.4019 11.0945 51.2218 10.9043C51.0316 10.7141 50.8114 10.574 50.5711 10.4739C50.3309 10.3738 50.0706 10.3237 49.8104 10.3237C49.2798 10.3237 48.7693 10.5339 48.3989 10.9043C48.0286 11.2747 47.8184 11.7852 47.8184 12.3157V33.2466C47.8184 33.5069 47.8684 33.7672 47.9685 34.0074C48.0686 34.2476 48.2188 34.4679 48.3989 34.6581C48.5891 34.8482 48.8094 34.9884 49.0496 35.0885C49.2898 35.1886 49.5501 35.2386 49.8104 35.2386C50.0706 35.2386 50.3309 35.1886 50.5711 35.0885C50.8114 34.9884 51.0316 34.8382 51.2218 34.6581C51.412 34.4679 51.5521 34.2476 51.6522 34.0074C51.7523 33.7672 51.8023 33.5069 51.8023 33.2466V27.2206C51.7823 26.1395 52.1827 25.0985 52.9034 24.2977C53.6242 23.4969 54.6252 22.9964 55.6962 22.9063C56.2668 22.8663 56.8374 22.9463 57.3779 23.1365C57.9185 23.3267 58.4089 23.627 58.8294 24.0174C59.2498 24.4078 59.5801 24.8783 59.8104 25.4088C60.0406 25.9293 60.1607 26.4999 60.1607 27.0705V33.2366C60.1607 33.4969 60.2108 33.7572 60.3109 34.0074C60.411 34.2476 60.5611 34.4679 60.7413 34.6581C60.9315 34.8482 61.1517 34.9884 61.3919 35.0885C61.6322 35.1886 61.8924 35.2386 62.1627 35.2386C62.423 35.2386 62.6832 35.1886 62.9235 35.0885C63.1637 34.9884 63.3839 34.8382 63.5741 34.6581C63.7643 34.4679 63.9044 34.2577 64.0045 34.0074C64.1046 33.7572 64.1547 33.5069 64.1547 33.2466V27.2507C64.1747 25.2587 63.474 23.3367 62.1927 21.8252C60.9014 20.3037 59.1097 19.3027 57.1477 18.9924Z" fill="#1E5BEE"/>
</svg>
